<?xml version="1.0" encoding="UTF-8"?>
<svg xmlns="http://www.w3.org/2000/svg" width="1320" height="760" viewBox="0 0 1320 760">
<rect width="100%" height="100%" fill="#ffffff"/>
<text x="24" y="38" font-size="24" font-family="Arial" font-weight="bold" fill="#17202a">Hash Similarity Links (Readable Pair View)</text>
<text x="24" y="60" font-size="13" font-family="Arial" fill="#566573">Each row is one high-similarity pair with author + category labels (no stacked overlaps).</text>
<line x1="210" y1="106" x2="830" y2="106" stroke="#9ec4de" stroke-width="4.86"/>
<circle cx="210" cy="106" r="7" fill="#2e86c1" stroke="#fff" stroke-width="1"/>
<circle cx="830" cy="106" r="7" fill="#2e86c1" stroke="#fff" stroke-width="1"/>
<rect x="24" y="88" width="520" height="34" rx="4" fill="#ffffff" stroke="#d5dbdb"/>
<text x="34" y="101" font-size="10.8" font-family="Arial" fill="#1b2631">Ken Thompson · Computing Systems · hash 18afc8</text>
<text x="34" y="115" font-size="10" font-family="Arial" fill="#5d6d7e">Regular Expression Search Algorit…</text>
<rect x="884" y="88" width="410" height="34" rx="4" fill="#ffffff" stroke="#d5dbdb"/>
<text x="894" y="101" font-size="10.8" font-family="Arial" fill="#1b2631">Alfred Aho +1 · Computing Systems · hash 595256</text>
<text x="894" y="115" font-size="10" font-family="Arial" fill="#5d6d7e">A Regular Expression Matcher</text>
<rect x="614" y="93" width="92" height="26" rx="12" fill="#eef5fb" stroke="#c6d9ea"/>
<text x="634" y="110" font-size="11" font-family="Arial" fill="#1b2631">sim: 0.864</text>
<line x1="210" y1="162" x2="830" y2="162" stroke="#9ec4de" stroke-width="4.54"/>
<circle cx="210" cy="162" r="7" fill="#2e86c1" stroke="#fff" stroke-width="1"/>
<circle cx="830" cy="162" r="7" fill="#2e86c1" stroke="#fff" stroke-width="1"/>
<rect x="24" y="144" width="520" height="34" rx="4" fill="#ffffff" stroke="#d5dbdb"/>
<text x="34" y="157" font-size="10.8" font-family="Arial" fill="#1b2631">John Tukey · Mathematics Statistics · hash c7bf30</text>
<text x="34" y="171" font-size="10" font-family="Arial" fill="#5d6d7e">The Future of Data Analysis</text>
<rect x="884" y="144" width="410" height="34" rx="4" fill="#ffffff" stroke="#d5dbdb"/>
<text x="894" y="157" font-size="10.8" font-family="Arial" fill="#1b2631">John Tukey · Mathematics Statistics · hash 67cd80</text>
<text x="894" y="171" font-size="10" font-family="Arial" fill="#5d6d7e">Exploratory Data Analysis</text>
<rect x="614" y="149" width="92" height="26" rx="12" fill="#eef5fb" stroke="#c6d9ea"/>
<text x="634" y="166" font-size="11" font-family="Arial" fill="#1b2631">sim: 0.785</text>
<line x1="210" y1="218" x2="830" y2="218" stroke="#9ec4de" stroke-width="3.99"/>
<circle cx="210" cy="218" r="7" fill="#2e86c1" stroke="#fff" stroke-width="1"/>
<circle cx="830" cy="218" r="7" fill="#2e86c1" stroke="#fff" stroke-width="1"/>
<rect x="24" y="200" width="520" height="34" rx="4" fill="#ffffff" stroke="#d5dbdb"/>
<text x="34" y="213" font-size="10.8" font-family="Arial" fill="#1b2631">Karl Jansky · Radio Astronomy · hash 7016d2</text>
<text x="34" y="227" font-size="10" font-family="Arial" fill="#5d6d7e">Electrical Disturbances Apparentl…</text>
<rect x="884" y="200" width="410" height="34" rx="4" fill="#ffffff" stroke="#d5dbdb"/>
<text x="894" y="213" font-size="10.8" font-family="Arial" fill="#1b2631">Karl Jansky · Radio Astronomy · hash 390043</text>
<text x="894" y="227" font-size="10" font-family="Arial" fill="#5d6d7e">Radio Emission from Radio-Frequen…</text>
<rect x="614" y="205" width="92" height="26" rx="12" fill="#eef5fb" stroke="#c6d9ea"/>
<text x="634" y="222" font-size="11" font-family="Arial" fill="#1b2631">sim: 0.648</text>
<line x1="210" y1="274" x2="830" y2="274" stroke="#9ec4de" stroke-width="3.98"/>
<circle cx="210" cy="274" r="7" fill="#2e86c1" stroke="#fff" stroke-width="1"/>
<circle cx="830" cy="274" r="7" fill="#2e86c1" stroke="#fff" stroke-width="1"/>
<rect x="24" y="256" width="520" height="34" rx="4" fill="#ffffff" stroke="#d5dbdb"/>
<text x="34" y="269" font-size="10.8" font-family="Arial" fill="#1b2631">Charles Kao +1 · Photonics Laser · hash 087a35</text>
<text x="34" y="283" font-size="10" font-family="Arial" fill="#5d6d7e">Dielectric-Fiber Surface Waveguid…</text>
<rect x="884" y="256" width="410" height="34" rx="4" fill="#ffffff" stroke="#d5dbdb"/>
<text x="894" y="269" font-size="10.8" font-family="Arial" fill="#1b2631">Tingye Li +1 · Photonics Laser · hash 2e62fe</text>
<text x="894" y="283" font-size="10" font-family="Arial" fill="#5d6d7e">Low-Loss Optical Fiber</text>
<rect x="614" y="261" width="92" height="26" rx="12" fill="#eef5fb" stroke="#c6d9ea"/>
<text x="634" y="278" font-size="11" font-family="Arial" fill="#1b2631">sim: 0.646</text>
<line x1="210" y1="330" x2="830" y2="330" stroke="#9ec4de" stroke-width="3.83"/>
<circle cx="210" cy="330" r="7" fill="#2e86c1" stroke="#fff" stroke-width="1"/>
<circle cx="830" cy="330" r="7" fill="#2e86c1" stroke="#fff" stroke-width="1"/>
<rect x="24" y="312" width="520" height="34" rx="4" fill="#ffffff" stroke="#d5dbdb"/>
<text x="34" y="325" font-size="10.8" font-family="Arial" fill="#1b2631">Charles Kao +1 · Photonics Laser · hash 087a35</text>
<text x="34" y="339" font-size="10" font-family="Arial" fill="#5d6d7e">Dielectric-Fiber Surface Waveguid…</text>
<rect x="884" y="312" width="410" height="34" rx="4" fill="#ffffff" stroke="#d5dbdb"/>
<text x="894" y="325" font-size="10.8" font-family="Arial" fill="#1b2631">Stewart Miller +1 · Photonics Laser · hash f5d103</text>
<text x="894" y="339" font-size="10" font-family="Arial" fill="#5d6d7e">Optical Fiber Communications</text>
<rect x="614" y="317" width="92" height="26" rx="12" fill="#eef5fb" stroke="#c6d9ea"/>
<text x="634" y="334" font-size="11" font-family="Arial" fill="#1b2631">sim: 0.608</text>
<line x1="210" y1="386" x2="830" y2="386" stroke="#9ec4de" stroke-width="3.83"/>
<circle cx="210" cy="386" r="7" fill="#2e86c1" stroke="#fff" stroke-width="1"/>
<circle cx="830" cy="386" r="7" fill="#2e86c1" stroke="#fff" stroke-width="1"/>
<rect x="24" y="368" width="520" height="34" rx="4" fill="#ffffff" stroke="#d5dbdb"/>
<text x="34" y="381" font-size="10.8" font-family="Arial" fill="#1b2631">John Bardeen +1 · Semiconductor Physics · hash d45d5d</text>
<text x="34" y="395" font-size="10" font-family="Arial" fill="#5d6d7e">The Transistor, A Semi-Conductor …</text>
<rect x="884" y="368" width="410" height="34" rx="4" fill="#ffffff" stroke="#d5dbdb"/>
<text x="894" y="381" font-size="10.8" font-family="Arial" fill="#1b2631">William Shockley · Semiconductor Physics · hash 704b5f</text>
<text x="894" y="395" font-size="10" font-family="Arial" fill="#5d6d7e">Bipolar Junction Transistor Theory</text>
<rect x="614" y="373" width="92" height="26" rx="12" fill="#eef5fb" stroke="#c6d9ea"/>
<text x="634" y="390" font-size="11" font-family="Arial" fill="#1b2631">sim: 0.608</text>
<line x1="210" y1="442" x2="830" y2="442" stroke="#9ec4de" stroke-width="3.83"/>
<circle cx="210" cy="442" r="7" fill="#2e86c1" stroke="#fff" stroke-width="1"/>
<circle cx="830" cy="442" r="7" fill="#2e86c1" stroke="#fff" stroke-width="1"/>
<rect x="24" y="424" width="520" height="34" rx="4" fill="#ffffff" stroke="#d5dbdb"/>
<text x="34" y="437" font-size="10.8" font-family="Arial" fill="#1b2631">Harry Nyquist +1 · Network Theory · hash 37054d</text>
<text x="34" y="451" font-size="10" font-family="Arial" fill="#5d6d7e">Regenerative Current Action in Co…</text>
<rect x="884" y="424" width="410" height="34" rx="4" fill="#ffffff" stroke="#d5dbdb"/>
<text x="894" y="437" font-size="10.8" font-family="Arial" fill="#1b2631">Harold Rosen +1 · Satellite Communications · hash d88f87</text>
<text x="894" y="451" font-size="10" font-family="Arial" fill="#5d6d7e">Telstar: First Active Communicati…</text>
<rect x="614" y="429" width="92" height="26" rx="12" fill="#eef5fb" stroke="#c6d9ea"/>
<text x="634" y="446" font-size="11" font-family="Arial" fill="#1b2631">sim: 0.608</text>
<line x1="210" y1="498" x2="830" y2="498" stroke="#9ec4de" stroke-width="3.77"/>
<circle cx="210" cy="498" r="7" fill="#2e86c1" stroke="#fff" stroke-width="1"/>
<circle cx="830" cy="498" r="7" fill="#2e86c1" stroke="#fff" stroke-width="1"/>
<rect x="24" y="480" width="520" height="34" rx="4" fill="#ffffff" stroke="#d5dbdb"/>
<text x="34" y="493" font-size="10.8" font-family="Arial" fill="#1b2631">Dennis Ritchie +1 · Computing Systems · hash 240bd9</text>
<text x="34" y="507" font-size="10" font-family="Arial" fill="#5d6d7e">MULTICS: The First Seven Years</text>
<rect x="884" y="480" width="410" height="34" rx="4" fill="#ffffff" stroke="#d5dbdb"/>
<text x="894" y="493" font-size="10.8" font-family="Arial" fill="#1b2631">Dennis Ritchie +1 · Computing Systems · hash cd2c02</text>
<text x="894" y="507" font-size="10" font-family="Arial" fill="#5d6d7e">The UNIX Time-Sharing System</text>
<rect x="614" y="485" width="92" height="26" rx="12" fill="#eef5fb" stroke="#c6d9ea"/>
<text x="634" y="502" font-size="11" font-family="Arial" fill="#1b2631">sim: 0.593</text>
<line x1="210" y1="554" x2="830" y2="554" stroke="#9ec4de" stroke-width="3.75"/>
<circle cx="210" cy="554" r="7" fill="#2e86c1" stroke="#fff" stroke-width="1"/>
<circle cx="830" cy="554" r="7" fill="#2e86c1" stroke="#fff" stroke-width="1"/>
<rect x="24" y="536" width="520" height="34" rx="4" fill="#ffffff" stroke="#d5dbdb"/>
<text x="34" y="549" font-size="10.8" font-family="Arial" fill="#1b2631">John Bardeen +1 · Semiconductor Physics · hash d45d5d</text>
<text x="34" y="563" font-size="10" font-family="Arial" fill="#5d6d7e">The Transistor, A Semi-Conductor …</text>
<rect x="884" y="536" width="410" height="34" rx="4" fill="#ffffff" stroke="#d5dbdb"/>
<text x="894" y="549" font-size="10.8" font-family="Arial" fill="#1b2631">William Shockley · Semiconductor Physics · hash 8e898b</text>
<text x="894" y="563" font-size="10" font-family="Arial" fill="#5d6d7e">Electrons and Holes in Semiconduc…</text>
<rect x="614" y="541" width="92" height="26" rx="12" fill="#eef5fb" stroke="#c6d9ea"/>
<text x="634" y="558" font-size="11" font-family="Arial" fill="#1b2631">sim: 0.589</text>
<line x1="210" y1="610" x2="830" y2="610" stroke="#9ec4de" stroke-width="3.65"/>
<circle cx="210" cy="610" r="7" fill="#2e86c1" stroke="#fff" stroke-width="1"/>
<circle cx="830" cy="610" r="7" fill="#2e86c1" stroke="#fff" stroke-width="1"/>
<rect x="24" y="592" width="520" height="34" rx="4" fill="#ffffff" stroke="#d5dbdb"/>
<text x="34" y="605" font-size="10.8" font-family="Arial" fill="#1b2631">John Pierce +1 · Satellite Communications · hash 0430ad</text>
<text x="34" y="619" font-size="10" font-family="Arial" fill="#5d6d7e">Echo: America&#x27;s First Communicati…</text>
<rect x="884" y="592" width="410" height="34" rx="4" fill="#ffffff" stroke="#d5dbdb"/>
<text x="894" y="605" font-size="10.8" font-family="Arial" fill="#1b2631">Harold Rosen +1 · Satellite Communications · hash d88f87</text>
<text x="894" y="619" font-size="10" font-family="Arial" fill="#5d6d7e">Telstar: First Active Communicati…</text>
<rect x="614" y="597" width="92" height="26" rx="12" fill="#eef5fb" stroke="#c6d9ea"/>
<text x="634" y="614" font-size="11" font-family="Arial" fill="#1b2631">sim: 0.564</text>
<rect x="24" y="676" width="620" height="58" fill="#f8f9f9" stroke="#d5dbdb" rx="4"/>
<text x="36" y="699" font-size="12.5" font-family="Arial" fill="#1b2631">Hash records: 71 | Unique fingerprints: 71 | Pair links shown: 10</text>
<text x="36" y="719" font-size="11" font-family="Arial" fill="#5d6d7e">Format: Author · Category + short title for each side of every pair.</text>
<svg xmlns="http://www.w3.org/2000/svg" width="1180" height="670">
<rect width="100%" height="100%" fill="#ffffff"/>
<text x="24" y="36" font-size="24" font-family="Arial" font-weight="bold" fill="#17202a">Hash Similarity Network (Author + Category Labels)</text>
<text x="24" y="60" font-size="13" font-family="Arial" fill="#5d6d7e">Pairs are labeled by first author and research category instead of internal paper IDs.</text>
<path d="M230.0,120.0 Q230.0,100.0 230.0,166.0" stroke="#6faed6" fill="none" stroke-width="4.51" opacity="0.6"/>
<path d="M230.0,212.0 Q230.0,192.0 230.0,258.0" stroke="#6faed6" fill="none" stroke-width="4.23" opacity="0.6"/>
<path d="M230.0,304.0 Q230.0,284.0 230.0,350.0" stroke="#6faed6" fill="none" stroke-width="3.73" opacity="0.6"/>
<path d="M230.0,396.0 Q230.0,376.0 230.0,442.0" stroke="#6faed6" fill="none" stroke-width="3.72" opacity="0.6"/>
<path d="M230.0,396.0 Q230.0,376.0 230.0,488.0" stroke="#6faed6" fill="none" stroke-width="3.59" opacity="0.6"/>
<path d="M720.0,120.0 Q720.0,100.0 720.0,166.0" stroke="#6faed6" fill="none" stroke-width="3.59" opacity="0.6"/>
<path d="M720.0,212.0 Q720.0,192.0 720.0,258.0" stroke="#6faed6" fill="none" stroke-width="3.59" opacity="0.6"/>
<path d="M720.0,304.0 Q720.0,284.0 720.0,350.0" stroke="#6faed6" fill="none" stroke-width="3.53" opacity="0.6"/>
<path d="M720.0,120.0 Q720.0,100.0 720.0,396.0" stroke="#6faed6" fill="none" stroke-width="3.52" opacity="0.6"/>
<path d="M720.0,442.0 Q720.0,238.0 720.0,258.0" stroke="#6faed6" fill="none" stroke-width="3.43" opacity="0.6"/>
<circle cx="230.0" cy="120.0" r="7.8" fill="#2e86c1" stroke="#ffffff" stroke-width="1"/>
<rect x="242.0" y="106.0" width="420" height="30" rx="4" fill="#ffffff" stroke="#d5dbdb"/>
<text x="248.0" y="118.0" font-size="10.5" font-family="Arial" fill="#1b2631">Ken Thompson · Computing Systems · hash 18afc8</text>
<text x="248.0" y="131.0" font-size="10" font-family="Arial" fill="#5d6d7e">Regular Expression Search Algorit…</text>
<circle cx="230.0" cy="166.0" r="7.8" fill="#2e86c1" stroke="#ffffff" stroke-width="1"/>
<rect x="242.0" y="152.0" width="420" height="30" rx="4" fill="#ffffff" stroke="#d5dbdb"/>
<text x="248.0" y="164.0" font-size="10.5" font-family="Arial" fill="#1b2631">Alfred Aho +1 · Computing Systems · hash 595256</text>
<text x="248.0" y="177.0" font-size="10" font-family="Arial" fill="#5d6d7e">A Regular Expression Matcher</text>
<circle cx="230.0" cy="212.0" r="7.8" fill="#2e86c1" stroke="#ffffff" stroke-width="1"/>
<rect x="242.0" y="198.0" width="420" height="30" rx="4" fill="#ffffff" stroke="#d5dbdb"/>
<text x="248.0" y="210.0" font-size="10.5" font-family="Arial" fill="#1b2631">John Tukey · Mathematics Statistics · hash c7bf30</text>
<text x="248.0" y="223.0" font-size="10" font-family="Arial" fill="#5d6d7e">The Future of Data Analysis</text>
<circle cx="230.0" cy="258.0" r="7.8" fill="#2e86c1" stroke="#ffffff" stroke-width="1"/>
<rect x="242.0" y="244.0" width="420" height="30" rx="4" fill="#ffffff" stroke="#d5dbdb"/>
<text x="248.0" y="256.0" font-size="10.5" font-family="Arial" fill="#1b2631">John Tukey · Mathematics Statistics · hash 67cd80</text>
<text x="248.0" y="269.0" font-size="10" font-family="Arial" fill="#5d6d7e">Exploratory Data Analysis</text>
<circle cx="230.0" cy="304.0" r="7.8" fill="#2e86c1" stroke="#ffffff" stroke-width="1"/>
<rect x="242.0" y="290.0" width="420" height="30" rx="4" fill="#ffffff" stroke="#d5dbdb"/>
<text x="248.0" y="302.0" font-size="10.5" font-family="Arial" fill="#1b2631">Karl Jansky · Radio Astronomy · hash 7016d2</text>
<text x="248.0" y="315.0" font-size="10" font-family="Arial" fill="#5d6d7e">Electrical Disturbances Apparentl…</text>
<circle cx="230.0" cy="350.0" r="7.8" fill="#2e86c1" stroke="#ffffff" stroke-width="1"/>
<rect x="242.0" y="336.0" width="420" height="30" rx="4" fill="#ffffff" stroke="#d5dbdb"/>
<text x="248.0" y="348.0" font-size="10.5" font-family="Arial" fill="#1b2631">Karl Jansky · Radio Astronomy · hash 390043</text>
<text x="248.0" y="361.0" font-size="10" font-family="Arial" fill="#5d6d7e">Radio Emission from Radio-Frequen…</text>
<circle cx="230.0" cy="396.0" r="7.8" fill="#2e86c1" stroke="#ffffff" stroke-width="1"/>
<rect x="242.0" y="382.0" width="420" height="30" rx="4" fill="#ffffff" stroke="#d5dbdb"/>
<text x="248.0" y="394.0" font-size="10.5" font-family="Arial" fill="#1b2631">Charles Kao +1 · Photonics Laser · hash 087a35</text>
<text x="248.0" y="407.0" font-size="10" font-family="Arial" fill="#5d6d7e">Dielectric-Fiber Surface Waveguid…</text>
<circle cx="230.0" cy="442.0" r="7.8" fill="#2e86c1" stroke="#ffffff" stroke-width="1"/>
<rect x="242.0" y="428.0" width="420" height="30" rx="4" fill="#ffffff" stroke="#d5dbdb"/>
<text x="248.0" y="440.0" font-size="10.5" font-family="Arial" fill="#1b2631">Tingye Li +1 · Photonics Laser · hash 2e62fe</text>
<text x="248.0" y="453.0" font-size="10" font-family="Arial" fill="#5d6d7e">Low-Loss Optical Fiber</text>
<circle cx="230.0" cy="488.0" r="7.8" fill="#2e86c1" stroke="#ffffff" stroke-width="1"/>
<rect x="242.0" y="474.0" width="420" height="30" rx="4" fill="#ffffff" stroke="#d5dbdb"/>
<text x="248.0" y="486.0" font-size="10.5" font-family="Arial" fill="#1b2631">Stewart Miller +1 · Photonics Laser · hash f5d103</text>
<text x="248.0" y="499.0" font-size="10" font-family="Arial" fill="#5d6d7e">Optical Fiber Communications</text>
<circle cx="720.0" cy="120.0" r="7.8" fill="#2e86c1" stroke="#ffffff" stroke-width="1"/>
<rect x="732.0" y="106.0" width="420" height="30" rx="4" fill="#ffffff" stroke="#d5dbdb"/>
<text x="738.0" y="118.0" font-size="10.5" font-family="Arial" fill="#1b2631">John Bardeen +1 · Semiconductor Physics · hash d45d5d</text>
<text x="738.0" y="131.0" font-size="10" font-family="Arial" fill="#5d6d7e">The Transistor, A Semi-Conductor …</text>
<circle cx="720.0" cy="166.0" r="7.8" fill="#2e86c1" stroke="#ffffff" stroke-width="1"/>
<rect x="732.0" y="152.0" width="420" height="30" rx="4" fill="#ffffff" stroke="#d5dbdb"/>
<text x="738.0" y="164.0" font-size="10.5" font-family="Arial" fill="#1b2631">William Shockley · Semiconductor Physics · hash 704b5f</text>
<text x="738.0" y="177.0" font-size="10" font-family="Arial" fill="#5d6d7e">Bipolar Junction Transistor Theory</text>
<circle cx="720.0" cy="212.0" r="7.8" fill="#2e86c1" stroke="#ffffff" stroke-width="1"/>
<rect x="732.0" y="198.0" width="420" height="30" rx="4" fill="#ffffff" stroke="#d5dbdb"/>
<text x="738.0" y="210.0" font-size="10.5" font-family="Arial" fill="#1b2631">Harry Nyquist +1 · Network Theory · hash 37054d</text>
<text x="738.0" y="223.0" font-size="10" font-family="Arial" fill="#5d6d7e">Regenerative Current Action in Co…</text>
<circle cx="720.0" cy="258.0" r="7.8" fill="#2e86c1" stroke="#ffffff" stroke-width="1"/>
<rect x="732.0" y="244.0" width="420" height="30" rx="4" fill="#ffffff" stroke="#d5dbdb"/>
<text x="738.0" y="256.0" font-size="10.5" font-family="Arial" fill="#1b2631">Harold Rosen +1 · Satellite Communications · hash d88f87</text>
<text x="738.0" y="269.0" font-size="10" font-family="Arial" fill="#5d6d7e">Telstar: First Active Communicati…</text>
<circle cx="720.0" cy="304.0" r="7.8" fill="#2e86c1" stroke="#ffffff" stroke-width="1"/>
<rect x="732.0" y="290.0" width="420" height="30" rx="4" fill="#ffffff" stroke="#d5dbdb"/>
<text x="738.0" y="302.0" font-size="10.5" font-family="Arial" fill="#1b2631">Dennis Ritchie +1 · Computing Systems · hash 240bd9</text>
<text x="738.0" y="315.0" font-size="10" font-family="Arial" fill="#5d6d7e">MULTICS: The First Seven Years</text>
<circle cx="720.0" cy="350.0" r="7.8" fill="#2e86c1" stroke="#ffffff" stroke-width="1"/>
<rect x="732.0" y="336.0" width="420" height="30" rx="4" fill="#ffffff" stroke="#d5dbdb"/>
<text x="738.0" y="348.0" font-size="10.5" font-family="Arial" fill="#1b2631">Dennis Ritchie +1 · Computing Systems · hash cd2c02</text>
<text x="738.0" y="361.0" font-size="10" font-family="Arial" fill="#5d6d7e">The UNIX Time-Sharing System</text>
<circle cx="720.0" cy="396.0" r="7.8" fill="#2e86c1" stroke="#ffffff" stroke-width="1"/>
<rect x="732.0" y="382.0" width="420" height="30" rx="4" fill="#ffffff" stroke="#d5dbdb"/>
<text x="738.0" y="394.0" font-size="10.5" font-family="Arial" fill="#1b2631">William Shockley · Semiconductor Physics · hash 8e898b</text>
<text x="738.0" y="407.0" font-size="10" font-family="Arial" fill="#5d6d7e">Electrons and Holes in Semiconduc…</text>
<circle cx="720.0" cy="442.0" r="7.8" fill="#2e86c1" stroke="#ffffff" stroke-width="1"/>
<rect x="732.0" y="428.0" width="420" height="30" rx="4" fill="#ffffff" stroke="#d5dbdb"/>
<text x="738.0" y="440.0" font-size="10.5" font-family="Arial" fill="#1b2631">John Pierce +1 · Satellite Communications · hash 0430ad</text>
<text x="738.0" y="453.0" font-size="10" font-family="Arial" fill="#5d6d7e">Echo: America&#x27;s First Communicati…</text>
<rect x="24" y="580" width="520" height="72" fill="#f8f9f9" stroke="#d5dbdb" rx="4"/>
<text x="36" y="606" font-size="12.5" font-family="Arial" fill="#1b2631">Hash records: 71 | Unique fingerprints: 71 | Top links shown: 10</text>
<text x="36" y="626" font-size="11" font-family="Arial" fill="#5d6d7e">Label format: Author · Category · hash prefix (title on second line)</text>
<svg xmlns="http://www.w3.org/2000/svg" width="1080" height="620">
<rect width="100%" height="100%" fill="#ffffff"/>
<text x="24" y="34" font-size="24" font-family="Arial" font-weight="bold" fill="#17202a">Hash Similarity Links (Highest-Scoring Pairs)</text>
<text x="24" y="58" font-size="13" font-family="Arial" fill="#5d6d7e">Cleaner component layout with weighted edges and compact node tags.</text>
<line x1="152.0" y1="680.0" x2="248.0" y2="680.0" stroke="#5499c7" stroke-width="5.39" opacity="0.52"/>
<line x1="568.0" y1="680.0" x2="472.0" y2="680.0" stroke="#5499c7" stroke-width="5.03" opacity="0.52"/>
<line x1="568.0" y1="430.0" x2="472.0" y2="430.0" stroke="#5499c7" stroke-width="4.42" opacity="0.52"/>
<line x1="484.0" y1="242.4" x2="484.0" y2="117.6" stroke="#5499c7" stroke-width="4.41" opacity="0.52"/>
<line x1="484.0" y1="242.4" x2="592.0" y2="180.0" stroke="#5499c7" stroke-width="4.24" opacity="0.52"/>
<line x1="272.0" y1="180.0" x2="164.0" y2="117.6" stroke="#5499c7" stroke-width="4.24" opacity="0.52"/>
<line x1="804.0" y1="117.6" x2="804.0" y2="242.4" stroke="#5499c7" stroke-width="4.24" opacity="0.52"/>
<line x1="152.0" y1="430.0" x2="248.0" y2="430.0" stroke="#5499c7" stroke-width="4.17" opacity="0.52"/>
<line x1="272.0" y1="180.0" x2="164.0" y2="242.4" stroke="#5499c7" stroke-width="4.15" opacity="0.52"/>
<line x1="912.0" y1="180.0" x2="804.0" y2="242.4" stroke="#5499c7" stroke-width="4.04" opacity="0.52"/>
<line x1="792.0" y1="430.0" x2="888.0" y2="430.0" stroke="#5499c7" stroke-width="4.01" opacity="0.52"/>
<circle cx="272.0" cy="180.0" r="9.5" fill="#2e86c1" stroke="#ffffff" stroke-width="1.2"/>
<rect x="280.5" y="158.0" width="112" height="16" rx="3" fill="#ffffff" opacity="0.88"/>
<text x="284.5" y="168.0" font-size="10" font-family="Arial" fill="#1b2631">BL0010 · d45d5d</text>
<circle cx="164.0" cy="242.4" r="9.5" fill="#2e86c1" stroke="#ffffff" stroke-width="1.2"/>
<rect x="172.5" y="220.4" width="112" height="16" rx="3" fill="#ffffff" opacity="0.88"/>
<text x="176.5" y="230.4" font-size="10" font-family="Arial" fill="#1b2631">BL0013 · 8e898b</text>
<circle cx="164.0" cy="117.6" r="9.5" fill="#2e86c1" stroke="#ffffff" stroke-width="1.2"/>
<rect x="172.5" y="95.6" width="112" height="16" rx="3" fill="#ffffff" opacity="0.88"/>
<text x="176.5" y="105.6" font-size="10" font-family="Arial" fill="#1b2631">BL0060 · 704b5f</text>
<circle cx="592.0" cy="180.0" r="9.5" fill="#2e86c1" stroke="#ffffff" stroke-width="1.2"/>
<rect x="600.5" y="158.0" width="112" height="16" rx="3" fill="#ffffff" opacity="0.88"/>
<text x="604.5" y="168.0" font-size="10" font-family="Arial" fill="#1b2631">BL0034 · f5d103</text>
<circle cx="484.0" cy="242.4" r="9.5" fill="#2e86c1" stroke="#ffffff" stroke-width="1.2"/>
<rect x="492.5" y="220.4" width="112" height="16" rx="3" fill="#ffffff" opacity="0.88"/>
<text x="496.5" y="230.4" font-size="10" font-family="Arial" fill="#1b2631">BL0035 · 087a35</text>
<circle cx="484.0" cy="117.6" r="9.5" fill="#2e86c1" stroke="#ffffff" stroke-width="1.2"/>
<rect x="492.5" y="95.6" width="112" height="16" rx="3" fill="#ffffff" opacity="0.88"/>
<text x="496.5" y="105.6" font-size="10" font-family="Arial" fill="#1b2631">BL0036 · 2e62fe</text>
<circle cx="912.0" cy="180.0" r="9.5" fill="#2e86c1" stroke="#ffffff" stroke-width="1.2"/>
<rect x="920.5" y="158.0" width="112" height="16" rx="3" fill="#ffffff" opacity="0.88"/>
<text x="924.5" y="168.0" font-size="10" font-family="Arial" fill="#1b2631">BL0044 · 0430ad</text>
<circle cx="804.0" cy="242.4" r="9.5" fill="#2e86c1" stroke="#ffffff" stroke-width="1.2"/>
<rect x="812.5" y="220.4" width="112" height="16" rx="3" fill="#ffffff" opacity="0.88"/>
<text x="816.5" y="230.4" font-size="10" font-family="Arial" fill="#1b2631">BL0045 · d88f87</text>
<circle cx="804.0" cy="117.6" r="9.5" fill="#2e86c1" stroke="#ffffff" stroke-width="1.2"/>
<rect x="812.5" y="95.6" width="112" height="16" rx="3" fill="#ffffff" opacity="0.88"/>
<text x="816.5" y="105.6" font-size="10" font-family="Arial" fill="#1b2631">BL0054 · 37054d</text>
<circle cx="248.0" cy="430.0" r="9.5" fill="#2e86c1" stroke="#ffffff" stroke-width="1.2"/>
<rect x="256.5" y="408.0" width="112" height="16" rx="3" fill="#ffffff" opacity="0.88"/>
<text x="260.5" y="418.0" font-size="10" font-family="Arial" fill="#1b2631">BL0022 · cd2c02</text>
<circle cx="152.0" cy="430.0" r="9.5" fill="#2e86c1" stroke="#ffffff" stroke-width="1.2"/>
<rect x="160.5" y="408.0" width="112" height="16" rx="3" fill="#ffffff" opacity="0.88"/>
<text x="164.5" y="418.0" font-size="10" font-family="Arial" fill="#1b2631">BL0025 · 240bd9</text>
<circle cx="568.0" cy="430.0" r="9.5" fill="#2e86c1" stroke="#ffffff" stroke-width="1.2"/>
<rect x="576.5" y="408.0" width="112" height="16" rx="3" fill="#ffffff" opacity="0.88"/>
<text x="580.5" y="418.0" font-size="10" font-family="Arial" fill="#1b2631">BL0038 · 7016d2</text>
<circle cx="472.0" cy="430.0" r="9.5" fill="#2e86c1" stroke="#ffffff" stroke-width="1.2"/>
<rect x="480.5" y="408.0" width="112" height="16" rx="3" fill="#ffffff" opacity="0.88"/>
<text x="484.5" y="418.0" font-size="10" font-family="Arial" fill="#1b2631">BL0042 · 390043</text>
<circle cx="888.0" cy="430.0" r="9.5" fill="#2e86c1" stroke="#ffffff" stroke-width="1.2"/>
<rect x="896.5" y="408.0" width="112" height="16" rx="3" fill="#ffffff" opacity="0.88"/>
<text x="900.5" y="418.0" font-size="10" font-family="Arial" fill="#1b2631">BL0050 · c729b2</text>
<circle cx="792.0" cy="430.0" r="9.5" fill="#2e86c1" stroke="#ffffff" stroke-width="1.2"/>
<rect x="800.5" y="408.0" width="112" height="16" rx="3" fill="#ffffff" opacity="0.88"/>
<text x="804.5" y="418.0" font-size="10" font-family="Arial" fill="#1b2631">BL0063 · df7c6b</text>
<circle cx="248.0" cy="680.0" r="9.5" fill="#2e86c1" stroke="#ffffff" stroke-width="1.2"/>
<rect x="256.5" y="658.0" width="112" height="16" rx="3" fill="#ffffff" opacity="0.88"/>
<text x="260.5" y="668.0" font-size="10" font-family="Arial" fill="#1b2631">BL0031 · 595256</text>
<circle cx="152.0" cy="680.0" r="9.5" fill="#2e86c1" stroke="#ffffff" stroke-width="1.2"/>
<rect x="160.5" y="658.0" width="112" height="16" rx="3" fill="#ffffff" opacity="0.88"/>
<text x="164.5" y="668.0" font-size="10" font-family="Arial" fill="#1b2631">BL0062 · 18afc8</text>
<circle cx="568.0" cy="680.0" r="9.5" fill="#2e86c1" stroke="#ffffff" stroke-width="1.2"/>
<rect x="576.5" y="658.0" width="112" height="16" rx="3" fill="#ffffff" opacity="0.88"/>
<text x="580.5" y="668.0" font-size="10" font-family="Arial" fill="#1b2631">BL0047 · c7bf30</text>
<circle cx="472.0" cy="680.0" r="9.5" fill="#2e86c1" stroke="#ffffff" stroke-width="1.2"/>
<rect x="480.5" y="658.0" width="112" height="16" rx="3" fill="#ffffff" opacity="0.88"/>
<text x="484.5" y="668.0" font-size="10" font-family="Arial" fill="#1b2631">BL0048 · 67cd80</text>
<rect x="24" y="498" width="410" height="98" fill="#f8f9f9" stroke="#d5dbdb" rx="4"/>
<text x="36" y="526" font-size="13" font-family="Arial" fill="#1b2631">Total hash records: 71</text>
<text x="36" y="547" font-size="13" font-family="Arial" fill="#1b2631">Unique fingerprints: 71</text>
<text x="36" y="568" font-size="13" font-family="Arial" fill="#1b2631">Top similarity links shown: 11</text>
<text x="36" y="587" font-size="11" font-family="Arial" fill="#5d6d7e">Source: paper_hash_table.csv + similar_paper_pairs.csv</text>
</svg>