<svg xmlns="http://www.w3.org/2000/svg" width="1280" height="760">
<defs><marker id="arrow" markerWidth="10" markerHeight="8" refX="9" refY="4" orient="auto" markerUnits="strokeWidth"><path d="M0,0 L10,4 L0,8 z" fill="#7f8c8d"/></marker></defs>
<rect width="100%" height="100%" fill="#ffffff"/>
<text x="24" y="34" font-size="24" font-family="Arial" font-weight="bold" fill="#17202a">Directed Paper Flow Network (Clean Author Labels)</text>
<text x="24" y="57" font-size="13" font-family="Arial" fill="#5d6d7e">Timeline by year, with spread lanes to avoid stacking and overlap.</text>
<line x1="140.0" y1="95" x2="140.0" y2="650" stroke="#ecf0f1"/>
<text x="128.0" y="88" font-size="10.5" font-family="Arial" fill="#7b8a8b">1933</text>
<line x1="163.6" y1="95" x2="163.6" y2="650" stroke="#ecf0f1"/>
<text x="151.6" y="88" font-size="10.5" font-family="Arial" fill="#7b8a8b">1934</text>
<line x1="187.3" y1="95" x2="187.3" y2="650" stroke="#ecf0f1"/>
<text x="175.3" y="88" font-size="10.5" font-family="Arial" fill="#7b8a8b">1935</text>
<line x1="494.5" y1="95" x2="494.5" y2="650" stroke="#ecf0f1"/>
<text x="482.5" y="88" font-size="10.5" font-family="Arial" fill="#7b8a8b">1948</text>
<line x1="565.5" y1="95" x2="565.5" y2="650" stroke="#ecf0f1"/>
<text x="553.5" y="88" font-size="10.5" font-family="Arial" fill="#7b8a8b">1951</text>
<line x1="825.5" y1="95" x2="825.5" y2="650" stroke="#ecf0f1"/>
<text x="813.5" y="88" font-size="10.5" font-family="Arial" fill="#7b8a8b">1962</text>
<line x1="849.1" y1="95" x2="849.1" y2="650" stroke="#ecf0f1"/>
<text x="837.1" y="88" font-size="10.5" font-family="Arial" fill="#7b8a8b">1963</text>
<line x1="920.0" y1="95" x2="920.0" y2="650" stroke="#ecf0f1"/>
<text x="908.0" y="88" font-size="10.5" font-family="Arial" fill="#7b8a8b">1966</text>
<line x1="967.3" y1="95" x2="967.3" y2="650" stroke="#ecf0f1"/>
<text x="955.3" y="88" font-size="10.5" font-family="Arial" fill="#7b8a8b">1968</text>
<line x1="1061.8" y1="95" x2="1061.8" y2="650" stroke="#ecf0f1"/>
<text x="1049.8" y="88" font-size="10.5" font-family="Arial" fill="#7b8a8b">1972</text>
<line x1="1109.1" y1="95" x2="1109.1" y2="650" stroke="#ecf0f1"/>
<text x="1097.1" y="88" font-size="10.5" font-family="Arial" fill="#7b8a8b">1974</text>
<line x1="1132.7" y1="95" x2="1132.7" y2="650" stroke="#ecf0f1"/>
<text x="1120.7" y="88" font-size="10.5" font-family="Arial" fill="#7b8a8b">1975</text>
<line x1="1180.0" y1="95" x2="1180.0" y2="650" stroke="#ecf0f1"/>
<text x="1168.0" y="88" font-size="10.5" font-family="Arial" fill="#7b8a8b">1977</text>
<path d="M967.3,570.0 Q1050.0,448.0 1132.7,480.0" stroke="#85929e" fill="none" stroke-width="4.17" opacity="0.65" marker-end="url(#arrow)"/>
<path d="M825.5,210.0 Q1002.7,178.0 1180.0,570.0" stroke="#85929e" fill="none" stroke-width="3.91" opacity="0.65" marker-end="url(#arrow)"/>
<path d="M140.0,210.0 Q163.6,178.0 187.3,390.0" stroke="#85929e" fill="none" stroke-width="3.47" opacity="0.65" marker-end="url(#arrow)"/>
<path d="M920.0,390.0 Q990.9,178.0 1061.8,210.0" stroke="#85929e" fill="none" stroke-width="3.47" opacity="0.65" marker-end="url(#arrow)"/>
<path d="M920.0,390.0 Q920.0,358.0 920.0,480.0" stroke="#85929e" fill="none" stroke-width="3.35" opacity="0.65" marker-end="url(#arrow)"/>
<path d="M494.5,480.0 Q530.0,448.0 565.5,570.0" stroke="#85929e" fill="none" stroke-width="3.35" opacity="0.65" marker-end="url(#arrow)"/>
<path d="M163.6,300.0 Q506.4,268.0 849.1,300.0" stroke="#85929e" fill="none" stroke-width="3.34" opacity="0.65" marker-end="url(#arrow)"/>
<path d="M1061.8,300.0 Q1085.5,268.0 1109.1,390.0" stroke="#85929e" fill="none" stroke-width="3.30" opacity="0.65" marker-end="url(#arrow)"/>
<circle cx="140.0" cy="210.0" r="8" fill="#9467bd" stroke="#ffffff" stroke-width="1"/>
<rect x="151.0" y="197.0" width="300" height="28" rx="4" fill="#ffffff" stroke="#d5dbdb"/>
<text x="157.0" y="208.0" font-size="10.5" font-family="Arial" fill="#1b2631">Karl Jansky · Radio Astronomy</text>
<text x="157.0" y="220.0" font-size="10" font-family="Arial" fill="#5d6d7e">Electrical Disturbances Apparently …</text>
<circle cx="163.6" cy="300.0" r="8" fill="#17becf" stroke="#ffffff" stroke-width="1"/>
<rect x="174.6" y="287.0" width="300" height="28" rx="4" fill="#ffffff" stroke="#d5dbdb"/>
<text x="180.6" y="298.0" font-size="10.5" font-family="Arial" fill="#1b2631">Harry Nyquist +1 · Network Theory</text>
<text x="180.6" y="310.0" font-size="10" font-family="Arial" fill="#5d6d7e">Regenerative Current Action in Comm…</text>
<circle cx="187.3" cy="390.0" r="8" fill="#9467bd" stroke="#ffffff" stroke-width="1"/>
<rect x="198.3" y="377.0" width="300" height="28" rx="4" fill="#ffffff" stroke="#d5dbdb"/>
<text x="204.3" y="388.0" font-size="10.5" font-family="Arial" fill="#1b2631">Karl Jansky · Radio Astronomy</text>
<text x="204.3" y="400.0" font-size="10" font-family="Arial" fill="#5d6d7e">Radio Emission from Radio-Frequency…</text>
<circle cx="494.5" cy="480.0" r="8" fill="#d62728" stroke="#ffffff" stroke-width="1"/>
<rect x="505.5" y="467.0" width="300" height="28" rx="4" fill="#ffffff" stroke="#d5dbdb"/>
<text x="511.5" y="478.0" font-size="10.5" font-family="Arial" fill="#1b2631">John Bardeen +1 · Semiconductor Physics</text>
<text x="511.5" y="490.0" font-size="10" font-family="Arial" fill="#5d6d7e">The Transistor, A Semi-Conductor Tr…</text>
<circle cx="565.5" cy="570.0" r="8" fill="#d62728" stroke="#ffffff" stroke-width="1"/>
<rect x="576.5" y="557.0" width="300" height="28" rx="4" fill="#ffffff" stroke="#d5dbdb"/>
<text x="582.5" y="568.0" font-size="10.5" font-family="Arial" fill="#1b2631">William Shockley · Semiconductor Physics</text>
<text x="582.5" y="580.0" font-size="10" font-family="Arial" fill="#5d6d7e">Bipolar Junction Transistor Theory</text>
<circle cx="825.5" cy="210.0" r="8" fill="#8c564b" stroke="#ffffff" stroke-width="1"/>
<rect x="836.5" y="197.0" width="300" height="28" rx="4" fill="#ffffff" stroke="#d5dbdb"/>
<text x="842.5" y="208.0" font-size="10.5" font-family="Arial" fill="#1b2631">John Tukey · Mathematics Statistics</text>
<text x="842.5" y="220.0" font-size="10" font-family="Arial" fill="#5d6d7e">The Future of Data Analysis</text>
<circle cx="849.1" cy="300.0" r="8" fill="#e377c2" stroke="#ffffff" stroke-width="1"/>
<rect x="860.1" y="287.0" width="300" height="28" rx="4" fill="#ffffff" stroke="#d5dbdb"/>
<text x="866.1" y="298.0" font-size="10.5" font-family="Arial" fill="#1b2631">Harold Rosen +1 · Satellite Communications</text>
<text x="866.1" y="310.0" font-size="10" font-family="Arial" fill="#5d6d7e">Telstar: First Active Communication…</text>
<circle cx="920.0" cy="390.0" r="8" fill="#ff7f0e" stroke="#ffffff" stroke-width="1"/>
<rect x="931.0" y="377.0" width="300" height="28" rx="4" fill="#ffffff" stroke="#d5dbdb"/>
<text x="937.0" y="388.0" font-size="10.5" font-family="Arial" fill="#1b2631">Charles Kao +1 · Photonics Laser</text>
<text x="937.0" y="400.0" font-size="10" font-family="Arial" fill="#5d6d7e">Dielectric-Fiber Surface Waveguides…</text>
<circle cx="920.0" cy="480.0" r="8" fill="#ff7f0e" stroke="#ffffff" stroke-width="1"/>
<rect x="931.0" y="467.0" width="300" height="28" rx="4" fill="#ffffff" stroke="#d5dbdb"/>
<text x="937.0" y="478.0" font-size="10.5" font-family="Arial" fill="#1b2631">Stewart Miller +1 · Photonics Laser</text>
<text x="937.0" y="490.0" font-size="10" font-family="Arial" fill="#5d6d7e">Optical Fiber Communications</text>
<circle cx="967.3" cy="570.0" r="8" fill="#2ca02c" stroke="#ffffff" stroke-width="1"/>
<rect x="978.3" y="557.0" width="300" height="28" rx="4" fill="#ffffff" stroke="#d5dbdb"/>
<text x="984.3" y="568.0" font-size="10.5" font-family="Arial" fill="#1b2631">Ken Thompson · Computing Systems</text>
<text x="984.3" y="580.0" font-size="10" font-family="Arial" fill="#5d6d7e">Regular Expression Search Algorithm</text>
<circle cx="1061.8" cy="210.0" r="8" fill="#ff7f0e" stroke="#ffffff" stroke-width="1"/>
<rect x="1072.8" y="197.0" width="300" height="28" rx="4" fill="#ffffff" stroke="#d5dbdb"/>
<text x="1078.8" y="208.0" font-size="10.5" font-family="Arial" fill="#1b2631">Tingye Li +1 · Photonics Laser</text>
<text x="1078.8" y="220.0" font-size="10" font-family="Arial" fill="#5d6d7e">Low-Loss Optical Fiber</text>
<circle cx="1061.8" cy="300.0" r="8" fill="#2ca02c" stroke="#ffffff" stroke-width="1"/>
<rect x="1072.8" y="287.0" width="300" height="28" rx="4" fill="#ffffff" stroke="#d5dbdb"/>
<text x="1078.8" y="298.0" font-size="10.5" font-family="Arial" fill="#1b2631">Dennis Ritchie +1 · Computing Systems</text>
<text x="1078.8" y="310.0" font-size="10" font-family="Arial" fill="#5d6d7e">MULTICS: The First Seven Years</text>
<circle cx="1109.1" cy="390.0" r="8" fill="#2ca02c" stroke="#ffffff" stroke-width="1"/>
<rect x="1120.1" y="377.0" width="300" height="28" rx="4" fill="#ffffff" stroke="#d5dbdb"/>
<text x="1126.1" y="388.0" font-size="10.5" font-family="Arial" fill="#1b2631">Dennis Ritchie +1 · Computing Systems</text>
<text x="1126.1" y="400.0" font-size="10" font-family="Arial" fill="#5d6d7e">The UNIX Time-Sharing System</text>
<circle cx="1132.7" cy="480.0" r="8" fill="#2ca02c" stroke="#ffffff" stroke-width="1"/>
<rect x="1143.7" y="467.0" width="300" height="28" rx="4" fill="#ffffff" stroke="#d5dbdb"/>
<text x="1149.7" y="478.0" font-size="10.5" font-family="Arial" fill="#1b2631">Alfred Aho +1 · Computing Systems</text>
<text x="1149.7" y="490.0" font-size="10" font-family="Arial" fill="#5d6d7e">A Regular Expression Matcher</text>
<circle cx="1180.0" cy="570.0" r="8" fill="#8c564b" stroke="#ffffff" stroke-width="1"/>
<rect x="1191.0" y="557.0" width="300" height="28" rx="4" fill="#ffffff" stroke="#d5dbdb"/>
<text x="1197.0" y="568.0" font-size="10.5" font-family="Arial" fill="#1b2631">John Tukey · Mathematics Statistics</text>
<text x="1197.0" y="580.0" font-size="10" font-family="Arial" fill="#5d6d7e">Exploratory Data Analysis</text>
<rect x="24" y="676" width="580" height="62" fill="#f8f9f9" stroke="#d5dbdb" rx="4"/>
<text x="36" y="700" font-size="12.5" font-family="Arial" fill="#1b2631">Papers shown: 15 | Similarity arrows: 8</text>
<text x="36" y="720" font-size="11" font-family="Arial" fill="#5d6d7e">Labels show Author + Category + short title (no internal paper IDs).</text>
<svg xmlns="http://www.w3.org/2000/svg" width="1120" height="720">
<defs><marker id="arrow" markerWidth="10" markerHeight="8" refX="9" refY="4" orient="auto" markerUnits="strokeWidth"><path d="M0,0 L10,4 L0,8 z" fill="#7f8c8d"/></marker></defs>
<rect width="100%" height="100%" fill="#ffffff"/>
<text x="24" y="34" font-size="24" font-family="Arial" font-weight="bold" fill="#17202a">Directed Paper Flow Network</text>
<text x="24" y="57" font-size="13" font-family="Arial" fill="#5d6d7e">Reduced clutter: fewer links, curved arrows, and simplified timeline markers.</text>
<line x1="130.0" y1="90" x2="130.0" y2="674" stroke="#ecf0f1"/>
<text x="118.0" y="103" font-size="11" font-family="Arial" fill="#7b8a8b">1933</text>
<line x1="433.4" y1="90" x2="433.4" y2="674" stroke="#ecf0f1"/>
<text x="421.4" y="103" font-size="11" font-family="Arial" fill="#7b8a8b">1948</text>
<line x1="736.8" y1="90" x2="736.8" y2="674" stroke="#ecf0f1"/>
<text x="724.8" y="103" font-size="11" font-family="Arial" fill="#7b8a8b">1963</text>
<line x1="797.5" y1="90" x2="797.5" y2="674" stroke="#ecf0f1"/>
<text x="785.5" y="103" font-size="11" font-family="Arial" fill="#7b8a8b">1966</text>
<line x1="838.0" y1="90" x2="838.0" y2="674" stroke="#ecf0f1"/>
<text x="826.0" y="103" font-size="11" font-family="Arial" fill="#7b8a8b">1968</text>
<line x1="918.9" y1="90" x2="918.9" y2="674" stroke="#ecf0f1"/>
<text x="906.9" y="103" font-size="11" font-family="Arial" fill="#7b8a8b">1972</text>
<line x1="1020.0" y1="90" x2="1020.0" y2="674" stroke="#ecf0f1"/>
<text x="1008.0" y="103" font-size="11" font-family="Arial" fill="#7b8a8b">1977</text>
<path d="M838.0,360.0 Q908.8,334.0 979.5,360.0" stroke="#7f8c8d" fill="none" stroke-width="4.14" opacity="0.66" marker-end="url(#arrow)"/>
<path d="M716.6,360.0 Q868.3,334.0 1020.0,360.0" stroke="#7f8c8d" fill="none" stroke-width="3.87" opacity="0.66" marker-end="url(#arrow)"/>
<path d="M130.0,360.0 Q150.2,334.0 170.5,360.0" stroke="#7f8c8d" fill="none" stroke-width="3.40" opacity="0.66" marker-end="url(#arrow)"/>
<path d="M797.5,331.0 Q858.2,305.0 918.9,331.0" stroke="#7f8c8d" fill="none" stroke-width="3.40" opacity="0.66" marker-end="url(#arrow)"/>
<path d="M797.5,331.0 Q797.5,305.0 797.5,389.0" stroke="#7f8c8d" fill="none" stroke-width="3.27" opacity="0.66" marker-end="url(#arrow)"/>
<path d="M433.4,360.0 Q463.8,334.0 494.1,360.0" stroke="#7f8c8d" fill="none" stroke-width="3.27" opacity="0.66" marker-end="url(#arrow)"/>
<path d="M150.2,360.0 Q443.5,334.0 736.8,360.0" stroke="#7f8c8d" fill="none" stroke-width="3.27" opacity="0.66" marker-end="url(#arrow)"/>
<path d="M918.9,389.0 Q939.1,415.0 959.3,360.0" stroke="#7f8c8d" fill="none" stroke-width="3.21" opacity="0.66" marker-end="url(#arrow)"/>
<path d="M433.4,360.0 Q453.6,334.0 473.9,360.0" stroke="#7f8c8d" fill="none" stroke-width="3.20" opacity="0.66" marker-end="url(#arrow)"/>
<path d="M696.4,360.0 Q716.6,334.0 736.8,360.0" stroke="#7f8c8d" fill="none" stroke-width="3.12" opacity="0.66" marker-end="url(#arrow)"/>
<circle cx="130.0" cy="360.0" r="8.5" fill="#9467bd" stroke="#ffffff" stroke-width="1"/>
<rect x="140.0" y="349.0" width="170" height="16" rx="3" fill="#ffffff" opacity="0.88"/>
<text x="144.0" y="361.0" font-size="10" font-family="Arial" fill="#1b2631">BL0038: Electrical Disturbances Ap</text>
<circle cx="150.2" cy="360.0" r="8.5" fill="#17becf" stroke="#ffffff" stroke-width="1"/>
<rect x="160.2" y="349.0" width="170" height="16" rx="3" fill="#ffffff" opacity="0.88"/>
<text x="164.2" y="361.0" font-size="10" font-family="Arial" fill="#1b2631">BL0054: Regenerative Current Actio</text>
<circle cx="170.5" cy="360.0" r="8.5" fill="#9467bd" stroke="#ffffff" stroke-width="1"/>
<rect x="180.5" y="349.0" width="170" height="16" rx="3" fill="#ffffff" opacity="0.88"/>
<text x="184.5" y="361.0" font-size="10" font-family="Arial" fill="#1b2631">BL0042: Radio Emission from Radio-</text>
<circle cx="433.4" cy="360.0" r="8.5" fill="#d62728" stroke="#ffffff" stroke-width="1"/>
<rect x="443.4" y="349.0" width="170" height="16" rx="3" fill="#ffffff" opacity="0.88"/>
<text x="447.4" y="361.0" font-size="10" font-family="Arial" fill="#1b2631">BL0010: The Transistor, A Semi-Con</text>
<circle cx="473.9" cy="360.0" r="8.5" fill="#d62728" stroke="#ffffff" stroke-width="1"/>
<rect x="483.9" y="349.0" width="170" height="16" rx="3" fill="#ffffff" opacity="0.88"/>
<text x="487.9" y="361.0" font-size="10" font-family="Arial" fill="#1b2631">BL0013: Electrons and Holes in Sem</text>
<circle cx="494.1" cy="360.0" r="8.5" fill="#d62728" stroke="#ffffff" stroke-width="1"/>
<rect x="504.1" y="349.0" width="170" height="16" rx="3" fill="#ffffff" opacity="0.88"/>
<text x="508.1" y="361.0" font-size="10" font-family="Arial" fill="#1b2631">BL0060: Bipolar Junction Transisto</text>
<circle cx="696.4" cy="360.0" r="8.5" fill="#e377c2" stroke="#ffffff" stroke-width="1"/>
<rect x="706.4" y="349.0" width="170" height="16" rx="3" fill="#ffffff" opacity="0.88"/>
<text x="710.4" y="361.0" font-size="10" font-family="Arial" fill="#1b2631">BL0044: Echo: America&#x27;s First Comm</text>
<circle cx="716.6" cy="360.0" r="8.5" fill="#8c564b" stroke="#ffffff" stroke-width="1"/>
<rect x="726.6" y="349.0" width="170" height="16" rx="3" fill="#ffffff" opacity="0.88"/>
<text x="730.6" y="361.0" font-size="10" font-family="Arial" fill="#1b2631">BL0047: The Future of Data Analysi</text>
<circle cx="736.8" cy="360.0" r="8.5" fill="#e377c2" stroke="#ffffff" stroke-width="1"/>
<rect x="746.8" y="349.0" width="170" height="16" rx="3" fill="#ffffff" opacity="0.88"/>
<text x="750.8" y="361.0" font-size="10" font-family="Arial" fill="#1b2631">BL0045: Telstar: First Active Comm</text>
<circle cx="797.5" cy="331.0" r="8.5" fill="#ff7f0e" stroke="#ffffff" stroke-width="1"/>
<rect x="807.5" y="320.0" width="170" height="16" rx="3" fill="#ffffff" opacity="0.88"/>
<text x="811.5" y="332.0" font-size="10" font-family="Arial" fill="#1b2631">BL0035: Dielectric-Fiber Surface W</text>
<circle cx="797.5" cy="389.0" r="8.5" fill="#ff7f0e" stroke="#ffffff" stroke-width="1"/>
<rect x="807.5" y="378.0" width="170" height="16" rx="3" fill="#ffffff" opacity="0.88"/>
<text x="811.5" y="390.0" font-size="10" font-family="Arial" fill="#1b2631">BL0034: Optical Fiber Communicatio</text>
<circle cx="838.0" cy="360.0" r="8.5" fill="#2ca02c" stroke="#ffffff" stroke-width="1"/>
<rect x="848.0" y="349.0" width="170" height="16" rx="3" fill="#ffffff" opacity="0.88"/>
<text x="852.0" y="361.0" font-size="10" font-family="Arial" fill="#1b2631">BL0062: Regular Expression Search </text>
<circle cx="918.9" cy="331.0" r="8.5" fill="#ff7f0e" stroke="#ffffff" stroke-width="1"/>
<rect x="928.9" y="320.0" width="170" height="16" rx="3" fill="#ffffff" opacity="0.88"/>
<text x="932.9" y="332.0" font-size="10" font-family="Arial" fill="#1b2631">BL0036: Low-Loss Optical Fiber</text>
<circle cx="918.9" cy="389.0" r="8.5" fill="#2ca02c" stroke="#ffffff" stroke-width="1"/>
<rect x="928.9" y="378.0" width="170" height="16" rx="3" fill="#ffffff" opacity="0.88"/>
<text x="932.9" y="390.0" font-size="10" font-family="Arial" fill="#1b2631">BL0025: MULTICS: The First Seven Y</text>
<circle cx="959.3" cy="360.0" r="8.5" fill="#2ca02c" stroke="#ffffff" stroke-width="1"/>
<rect x="969.3" y="349.0" width="170" height="16" rx="3" fill="#ffffff" opacity="0.88"/>
<text x="973.3" y="361.0" font-size="10" font-family="Arial" fill="#1b2631">BL0022: The UNIX Time-Sharing Syst</text>
<circle cx="979.5" cy="360.0" r="8.5" fill="#2ca02c" stroke="#ffffff" stroke-width="1"/>
<rect x="989.5" y="349.0" width="170" height="16" rx="3" fill="#ffffff" opacity="0.88"/>
<text x="993.5" y="361.0" font-size="10" font-family="Arial" fill="#1b2631">BL0031: A Regular Expression Match</text>
<circle cx="1020.0" cy="360.0" r="8.5" fill="#8c564b" stroke="#ffffff" stroke-width="1"/>
<rect x="1030.0" y="349.0" width="170" height="16" rx="3" fill="#ffffff" opacity="0.88"/>
<text x="1034.0" y="361.0" font-size="10" font-family="Arial" fill="#1b2631">BL0048: Exploratory Data Analysis</text>
<rect x="24" y="604" width="460" height="94" fill="#f8f9f9" stroke="#d5dbdb" rx="4"/>
<text x="36" y="631" font-size="13" font-family="Arial" fill="#1b2631">Papers shown: 17</text>
<text x="36" y="652" font-size="13" font-family="Arial" fill="#1b2631">Similarity arrows: 10</text>
<text x="36" y="673" font-size="11" font-family="Arial" fill="#5d6d7e">Layout: x by year, y by within-year separation. Arrow thickness = similarity.</text>
</svg>