<svg xmlns="http://www.w3.org/2000/svg" width="1120" height="720">
<defs><marker id="arrow" markerWidth="10" markerHeight="8" refX="9" refY="4" orient="auto" markerUnits="strokeWidth"><path d="M0,0 L10,4 L0,8 z" fill="#7f8c8d"/></marker></defs>
<rect width="100%" height="100%" fill="#ffffff"/>
<text x="24" y="34" font-size="24" font-family="Arial" font-weight="bold" fill="#17202a">Directed Paper Flow Network</text>
<text x="24" y="57" font-size="13" font-family="Arial" fill="#5d6d7e">Reduced clutter: fewer links, curved arrows, and simplified timeline markers.</text>
<line x1="130.0" y1="90" x2="130.0" y2="674" stroke="#ecf0f1"/>
<text x="118.0" y="103" font-size="11" font-family="Arial" fill="#7b8a8b">1933</text>
<line x1="433.4" y1="90" x2="433.4" y2="674" stroke="#ecf0f1"/>
<text x="421.4" y="103" font-size="11" font-family="Arial" fill="#7b8a8b">1948</text>
<line x1="736.8" y1="90" x2="736.8" y2="674" stroke="#ecf0f1"/>
<text x="724.8" y="103" font-size="11" font-family="Arial" fill="#7b8a8b">1963</text>
<line x1="797.5" y1="90" x2="797.5" y2="674" stroke="#ecf0f1"/>
<text x="785.5" y="103" font-size="11" font-family="Arial" fill="#7b8a8b">1966</text>
<line x1="838.0" y1="90" x2="838.0" y2="674" stroke="#ecf0f1"/>
<text x="826.0" y="103" font-size="11" font-family="Arial" fill="#7b8a8b">1968</text>
<line x1="918.9" y1="90" x2="918.9" y2="674" stroke="#ecf0f1"/>
<text x="906.9" y="103" font-size="11" font-family="Arial" fill="#7b8a8b">1972</text>
<line x1="1020.0" y1="90" x2="1020.0" y2="674" stroke="#ecf0f1"/>
<text x="1008.0" y="103" font-size="11" font-family="Arial" fill="#7b8a8b">1977</text>
<path d="M838.0,360.0 Q908.8,334.0 979.5,360.0" stroke="#7f8c8d" fill="none" stroke-width="4.14" opacity="0.66" marker-end="url(#arrow)"/>
<path d="M716.6,360.0 Q868.3,334.0 1020.0,360.0" stroke="#7f8c8d" fill="none" stroke-width="3.87" opacity="0.66" marker-end="url(#arrow)"/>
<path d="M130.0,360.0 Q150.2,334.0 170.5,360.0" stroke="#7f8c8d" fill="none" stroke-width="3.40" opacity="0.66" marker-end="url(#arrow)"/>
<path d="M797.5,331.0 Q858.2,305.0 918.9,331.0" stroke="#7f8c8d" fill="none" stroke-width="3.40" opacity="0.66" marker-end="url(#arrow)"/>
<path d="M797.5,331.0 Q797.5,305.0 797.5,389.0" stroke="#7f8c8d" fill="none" stroke-width="3.27" opacity="0.66" marker-end="url(#arrow)"/>
<path d="M433.4,360.0 Q463.8,334.0 494.1,360.0" stroke="#7f8c8d" fill="none" stroke-width="3.27" opacity="0.66" marker-end="url(#arrow)"/>
<path d="M150.2,360.0 Q443.5,334.0 736.8,360.0" stroke="#7f8c8d" fill="none" stroke-width="3.27" opacity="0.66" marker-end="url(#arrow)"/>
<path d="M918.9,389.0 Q939.1,415.0 959.3,360.0" stroke="#7f8c8d" fill="none" stroke-width="3.21" opacity="0.66" marker-end="url(#arrow)"/>
<path d="M433.4,360.0 Q453.6,334.0 473.9,360.0" stroke="#7f8c8d" fill="none" stroke-width="3.20" opacity="0.66" marker-end="url(#arrow)"/>
<path d="M696.4,360.0 Q716.6,334.0 736.8,360.0" stroke="#7f8c8d" fill="none" stroke-width="3.12" opacity="0.66" marker-end="url(#arrow)"/>
<circle cx="130.0" cy="360.0" r="8.5" fill="#9467bd" stroke="#ffffff" stroke-width="1"/>
<rect x="140.0" y="349.0" width="170" height="16" rx="3" fill="#ffffff" opacity="0.88"/>
<text x="144.0" y="361.0" font-size="10" font-family="Arial" fill="#1b2631">BL0038: Electrical Disturbances Ap</text>
<circle cx="150.2" cy="360.0" r="8.5" fill="#17becf" stroke="#ffffff" stroke-width="1"/>
<rect x="160.2" y="349.0" width="170" height="16" rx="3" fill="#ffffff" opacity="0.88"/>
<text x="164.2" y="361.0" font-size="10" font-family="Arial" fill="#1b2631">BL0054: Regenerative Current Actio</text>
<circle cx="170.5" cy="360.0" r="8.5" fill="#9467bd" stroke="#ffffff" stroke-width="1"/>
<rect x="180.5" y="349.0" width="170" height="16" rx="3" fill="#ffffff" opacity="0.88"/>
<text x="184.5" y="361.0" font-size="10" font-family="Arial" fill="#1b2631">BL0042: Radio Emission from Radio-</text>
<circle cx="433.4" cy="360.0" r="8.5" fill="#d62728" stroke="#ffffff" stroke-width="1"/>
<rect x="443.4" y="349.0" width="170" height="16" rx="3" fill="#ffffff" opacity="0.88"/>
<text x="447.4" y="361.0" font-size="10" font-family="Arial" fill="#1b2631">BL0010: The Transistor, A Semi-Con</text>
<circle cx="473.9" cy="360.0" r="8.5" fill="#d62728" stroke="#ffffff" stroke-width="1"/>
<rect x="483.9" y="349.0" width="170" height="16" rx="3" fill="#ffffff" opacity="0.88"/>
<text x="487.9" y="361.0" font-size="10" font-family="Arial" fill="#1b2631">BL0013: Electrons and Holes in Sem</text>
<circle cx="494.1" cy="360.0" r="8.5" fill="#d62728" stroke="#ffffff" stroke-width="1"/>
<rect x="504.1" y="349.0" width="170" height="16" rx="3" fill="#ffffff" opacity="0.88"/>
<text x="508.1" y="361.0" font-size="10" font-family="Arial" fill="#1b2631">BL0060: Bipolar Junction Transisto</text>
<circle cx="696.4" cy="360.0" r="8.5" fill="#e377c2" stroke="#ffffff" stroke-width="1"/>
<rect x="706.4" y="349.0" width="170" height="16" rx="3" fill="#ffffff" opacity="0.88"/>
<text x="710.4" y="361.0" font-size="10" font-family="Arial" fill="#1b2631">BL0044: Echo: America&#x27;s First Comm</text>
<circle cx="716.6" cy="360.0" r="8.5" fill="#8c564b" stroke="#ffffff" stroke-width="1"/>
<rect x="726.6" y="349.0" width="170" height="16" rx="3" fill="#ffffff" opacity="0.88"/>
<text x="730.6" y="361.0" font-size="10" font-family="Arial" fill="#1b2631">BL0047: The Future of Data Analysi</text>
<circle cx="736.8" cy="360.0" r="8.5" fill="#e377c2" stroke="#ffffff" stroke-width="1"/>
<rect x="746.8" y="349.0" width="170" height="16" rx="3" fill="#ffffff" opacity="0.88"/>
<text x="750.8" y="361.0" font-size="10" font-family="Arial" fill="#1b2631">BL0045: Telstar: First Active Comm</text>
<circle cx="797.5" cy="331.0" r="8.5" fill="#ff7f0e" stroke="#ffffff" stroke-width="1"/>
<rect x="807.5" y="320.0" width="170" height="16" rx="3" fill="#ffffff" opacity="0.88"/>
<text x="811.5" y="332.0" font-size="10" font-family="Arial" fill="#1b2631">BL0035: Dielectric-Fiber Surface W</text>
<circle cx="797.5" cy="389.0" r="8.5" fill="#ff7f0e" stroke="#ffffff" stroke-width="1"/>
<rect x="807.5" y="378.0" width="170" height="16" rx="3" fill="#ffffff" opacity="0.88"/>
<text x="811.5" y="390.0" font-size="10" font-family="Arial" fill="#1b2631">BL0034: Optical Fiber Communicatio</text>
<circle cx="838.0" cy="360.0" r="8.5" fill="#2ca02c" stroke="#ffffff" stroke-width="1"/>
<rect x="848.0" y="349.0" width="170" height="16" rx="3" fill="#ffffff" opacity="0.88"/>
<text x="852.0" y="361.0" font-size="10" font-family="Arial" fill="#1b2631">BL0062: Regular Expression Search </text>
<circle cx="918.9" cy="331.0" r="8.5" fill="#ff7f0e" stroke="#ffffff" stroke-width="1"/>
<rect x="928.9" y="320.0" width="170" height="16" rx="3" fill="#ffffff" opacity="0.88"/>
<text x="932.9" y="332.0" font-size="10" font-family="Arial" fill="#1b2631">BL0036: Low-Loss Optical Fiber</text>
<circle cx="918.9" cy="389.0" r="8.5" fill="#2ca02c" stroke="#ffffff" stroke-width="1"/>
<rect x="928.9" y="378.0" width="170" height="16" rx="3" fill="#ffffff" opacity="0.88"/>
<text x="932.9" y="390.0" font-size="10" font-family="Arial" fill="#1b2631">BL0025: MULTICS: The First Seven Y</text>
<circle cx="959.3" cy="360.0" r="8.5" fill="#2ca02c" stroke="#ffffff" stroke-width="1"/>
<rect x="969.3" y="349.0" width="170" height="16" rx="3" fill="#ffffff" opacity="0.88"/>
<text x="973.3" y="361.0" font-size="10" font-family="Arial" fill="#1b2631">BL0022: The UNIX Time-Sharing Syst</text>
<circle cx="979.5" cy="360.0" r="8.5" fill="#2ca02c" stroke="#ffffff" stroke-width="1"/>
<rect x="989.5" y="349.0" width="170" height="16" rx="3" fill="#ffffff" opacity="0.88"/>
<text x="993.5" y="361.0" font-size="10" font-family="Arial" fill="#1b2631">BL0031: A Regular Expression Match</text>
<circle cx="1020.0" cy="360.0" r="8.5" fill="#8c564b" stroke="#ffffff" stroke-width="1"/>
<rect x="1030.0" y="349.0" width="170" height="16" rx="3" fill="#ffffff" opacity="0.88"/>
<text x="1034.0" y="361.0" font-size="10" font-family="Arial" fill="#1b2631">BL0048: Exploratory Data Analysis</text>
<rect x="24" y="604" width="460" height="94" fill="#f8f9f9" stroke="#d5dbdb" rx="4"/>
<text x="36" y="631" font-size="13" font-family="Arial" fill="#1b2631">Papers shown: 17</text>
<text x="36" y="652" font-size="13" font-family="Arial" fill="#1b2631">Similarity arrows: 10</text>
<text x="36" y="673" font-size="11" font-family="Arial" fill="#5d6d7e">Layout: x by year, y by within-year separation. Arrow thickness = similarity.</text>
</svg>