<svg xmlns="http://www.w3.org/2000/svg" width="1180" height="670">
<rect width="100%" height="100%" fill="#ffffff"/>
<text x="24" y="36" font-size="24" font-family="Arial" font-weight="bold" fill="#17202a">Hash Similarity Network (Author + Category Labels)</text>
<text x="24" y="60" font-size="13" font-family="Arial" fill="#5d6d7e">Pairs are labeled by first author and research category instead of internal paper IDs.</text>
<path d="M230.0,120.0 Q230.0,100.0 230.0,166.0" stroke="#6faed6" fill="none" stroke-width="4.51" opacity="0.6"/>
<path d="M230.0,212.0 Q230.0,192.0 230.0,258.0" stroke="#6faed6" fill="none" stroke-width="4.23" opacity="0.6"/>
<path d="M230.0,304.0 Q230.0,284.0 230.0,350.0" stroke="#6faed6" fill="none" stroke-width="3.73" opacity="0.6"/>
<path d="M230.0,396.0 Q230.0,376.0 230.0,442.0" stroke="#6faed6" fill="none" stroke-width="3.72" opacity="0.6"/>
<path d="M230.0,396.0 Q230.0,376.0 230.0,488.0" stroke="#6faed6" fill="none" stroke-width="3.59" opacity="0.6"/>
<path d="M720.0,120.0 Q720.0,100.0 720.0,166.0" stroke="#6faed6" fill="none" stroke-width="3.59" opacity="0.6"/>
<path d="M720.0,212.0 Q720.0,192.0 720.0,258.0" stroke="#6faed6" fill="none" stroke-width="3.59" opacity="0.6"/>
<path d="M720.0,304.0 Q720.0,284.0 720.0,350.0" stroke="#6faed6" fill="none" stroke-width="3.53" opacity="0.6"/>
<path d="M720.0,120.0 Q720.0,100.0 720.0,396.0" stroke="#6faed6" fill="none" stroke-width="3.52" opacity="0.6"/>
<path d="M720.0,442.0 Q720.0,238.0 720.0,258.0" stroke="#6faed6" fill="none" stroke-width="3.43" opacity="0.6"/>
<circle cx="230.0" cy="120.0" r="7.8" fill="#2e86c1" stroke="#ffffff" stroke-width="1"/>
<rect x="242.0" y="106.0" width="420" height="30" rx="4" fill="#ffffff" stroke="#d5dbdb"/>
<text x="248.0" y="118.0" font-size="10.5" font-family="Arial" fill="#1b2631">Ken Thompson · Computing Systems · hash 18afc8</text>
<text x="248.0" y="131.0" font-size="10" font-family="Arial" fill="#5d6d7e">Regular Expression Search Algorit…</text>
<circle cx="230.0" cy="166.0" r="7.8" fill="#2e86c1" stroke="#ffffff" stroke-width="1"/>
<rect x="242.0" y="152.0" width="420" height="30" rx="4" fill="#ffffff" stroke="#d5dbdb"/>
<text x="248.0" y="164.0" font-size="10.5" font-family="Arial" fill="#1b2631">Alfred Aho +1 · Computing Systems · hash 595256</text>
<text x="248.0" y="177.0" font-size="10" font-family="Arial" fill="#5d6d7e">A Regular Expression Matcher</text>
<circle cx="230.0" cy="212.0" r="7.8" fill="#2e86c1" stroke="#ffffff" stroke-width="1"/>
<rect x="242.0" y="198.0" width="420" height="30" rx="4" fill="#ffffff" stroke="#d5dbdb"/>
<text x="248.0" y="210.0" font-size="10.5" font-family="Arial" fill="#1b2631">John Tukey · Mathematics Statistics · hash c7bf30</text>
<text x="248.0" y="223.0" font-size="10" font-family="Arial" fill="#5d6d7e">The Future of Data Analysis</text>
<circle cx="230.0" cy="258.0" r="7.8" fill="#2e86c1" stroke="#ffffff" stroke-width="1"/>
<rect x="242.0" y="244.0" width="420" height="30" rx="4" fill="#ffffff" stroke="#d5dbdb"/>
<text x="248.0" y="256.0" font-size="10.5" font-family="Arial" fill="#1b2631">John Tukey · Mathematics Statistics · hash 67cd80</text>
<text x="248.0" y="269.0" font-size="10" font-family="Arial" fill="#5d6d7e">Exploratory Data Analysis</text>
<circle cx="230.0" cy="304.0" r="7.8" fill="#2e86c1" stroke="#ffffff" stroke-width="1"/>
<rect x="242.0" y="290.0" width="420" height="30" rx="4" fill="#ffffff" stroke="#d5dbdb"/>
<text x="248.0" y="302.0" font-size="10.5" font-family="Arial" fill="#1b2631">Karl Jansky · Radio Astronomy · hash 7016d2</text>
<text x="248.0" y="315.0" font-size="10" font-family="Arial" fill="#5d6d7e">Electrical Disturbances Apparentl…</text>
<circle cx="230.0" cy="350.0" r="7.8" fill="#2e86c1" stroke="#ffffff" stroke-width="1"/>
<rect x="242.0" y="336.0" width="420" height="30" rx="4" fill="#ffffff" stroke="#d5dbdb"/>
<text x="248.0" y="348.0" font-size="10.5" font-family="Arial" fill="#1b2631">Karl Jansky · Radio Astronomy · hash 390043</text>
<text x="248.0" y="361.0" font-size="10" font-family="Arial" fill="#5d6d7e">Radio Emission from Radio-Frequen…</text>
<circle cx="230.0" cy="396.0" r="7.8" fill="#2e86c1" stroke="#ffffff" stroke-width="1"/>
<rect x="242.0" y="382.0" width="420" height="30" rx="4" fill="#ffffff" stroke="#d5dbdb"/>
<text x="248.0" y="394.0" font-size="10.5" font-family="Arial" fill="#1b2631">Charles Kao +1 · Photonics Laser · hash 087a35</text>
<text x="248.0" y="407.0" font-size="10" font-family="Arial" fill="#5d6d7e">Dielectric-Fiber Surface Waveguid…</text>
<circle cx="230.0" cy="442.0" r="7.8" fill="#2e86c1" stroke="#ffffff" stroke-width="1"/>
<rect x="242.0" y="428.0" width="420" height="30" rx="4" fill="#ffffff" stroke="#d5dbdb"/>
<text x="248.0" y="440.0" font-size="10.5" font-family="Arial" fill="#1b2631">Tingye Li +1 · Photonics Laser · hash 2e62fe</text>
<text x="248.0" y="453.0" font-size="10" font-family="Arial" fill="#5d6d7e">Low-Loss Optical Fiber</text>
<circle cx="230.0" cy="488.0" r="7.8" fill="#2e86c1" stroke="#ffffff" stroke-width="1"/>
<rect x="242.0" y="474.0" width="420" height="30" rx="4" fill="#ffffff" stroke="#d5dbdb"/>
<text x="248.0" y="486.0" font-size="10.5" font-family="Arial" fill="#1b2631">Stewart Miller +1 · Photonics Laser · hash f5d103</text>
<text x="248.0" y="499.0" font-size="10" font-family="Arial" fill="#5d6d7e">Optical Fiber Communications</text>
<circle cx="720.0" cy="120.0" r="7.8" fill="#2e86c1" stroke="#ffffff" stroke-width="1"/>
<rect x="732.0" y="106.0" width="420" height="30" rx="4" fill="#ffffff" stroke="#d5dbdb"/>
<text x="738.0" y="118.0" font-size="10.5" font-family="Arial" fill="#1b2631">John Bardeen +1 · Semiconductor Physics · hash d45d5d</text>
<text x="738.0" y="131.0" font-size="10" font-family="Arial" fill="#5d6d7e">The Transistor, A Semi-Conductor …</text>
<circle cx="720.0" cy="166.0" r="7.8" fill="#2e86c1" stroke="#ffffff" stroke-width="1"/>
<rect x="732.0" y="152.0" width="420" height="30" rx="4" fill="#ffffff" stroke="#d5dbdb"/>
<text x="738.0" y="164.0" font-size="10.5" font-family="Arial" fill="#1b2631">William Shockley · Semiconductor Physics · hash 704b5f</text>
<text x="738.0" y="177.0" font-size="10" font-family="Arial" fill="#5d6d7e">Bipolar Junction Transistor Theory</text>
<circle cx="720.0" cy="212.0" r="7.8" fill="#2e86c1" stroke="#ffffff" stroke-width="1"/>
<rect x="732.0" y="198.0" width="420" height="30" rx="4" fill="#ffffff" stroke="#d5dbdb"/>
<text x="738.0" y="210.0" font-size="10.5" font-family="Arial" fill="#1b2631">Harry Nyquist +1 · Network Theory · hash 37054d</text>
<text x="738.0" y="223.0" font-size="10" font-family="Arial" fill="#5d6d7e">Regenerative Current Action in Co…</text>
<circle cx="720.0" cy="258.0" r="7.8" fill="#2e86c1" stroke="#ffffff" stroke-width="1"/>
<rect x="732.0" y="244.0" width="420" height="30" rx="4" fill="#ffffff" stroke="#d5dbdb"/>
<text x="738.0" y="256.0" font-size="10.5" font-family="Arial" fill="#1b2631">Harold Rosen +1 · Satellite Communications · hash d88f87</text>
<text x="738.0" y="269.0" font-size="10" font-family="Arial" fill="#5d6d7e">Telstar: First Active Communicati…</text>
<circle cx="720.0" cy="304.0" r="7.8" fill="#2e86c1" stroke="#ffffff" stroke-width="1"/>
<rect x="732.0" y="290.0" width="420" height="30" rx="4" fill="#ffffff" stroke="#d5dbdb"/>
<text x="738.0" y="302.0" font-size="10.5" font-family="Arial" fill="#1b2631">Dennis Ritchie +1 · Computing Systems · hash 240bd9</text>
<text x="738.0" y="315.0" font-size="10" font-family="Arial" fill="#5d6d7e">MULTICS: The First Seven Years</text>
<circle cx="720.0" cy="350.0" r="7.8" fill="#2e86c1" stroke="#ffffff" stroke-width="1"/>
<rect x="732.0" y="336.0" width="420" height="30" rx="4" fill="#ffffff" stroke="#d5dbdb"/>
<text x="738.0" y="348.0" font-size="10.5" font-family="Arial" fill="#1b2631">Dennis Ritchie +1 · Computing Systems · hash cd2c02</text>
<text x="738.0" y="361.0" font-size="10" font-family="Arial" fill="#5d6d7e">The UNIX Time-Sharing System</text>
<circle cx="720.0" cy="396.0" r="7.8" fill="#2e86c1" stroke="#ffffff" stroke-width="1"/>
<rect x="732.0" y="382.0" width="420" height="30" rx="4" fill="#ffffff" stroke="#d5dbdb"/>
<text x="738.0" y="394.0" font-size="10.5" font-family="Arial" fill="#1b2631">William Shockley · Semiconductor Physics · hash 8e898b</text>
<text x="738.0" y="407.0" font-size="10" font-family="Arial" fill="#5d6d7e">Electrons and Holes in Semiconduc…</text>
<circle cx="720.0" cy="442.0" r="7.8" fill="#2e86c1" stroke="#ffffff" stroke-width="1"/>
<rect x="732.0" y="428.0" width="420" height="30" rx="4" fill="#ffffff" stroke="#d5dbdb"/>
<text x="738.0" y="440.0" font-size="10.5" font-family="Arial" fill="#1b2631">John Pierce +1 · Satellite Communications · hash 0430ad</text>
<text x="738.0" y="453.0" font-size="10" font-family="Arial" fill="#5d6d7e">Echo: America&#x27;s First Communicati…</text>
<rect x="24" y="580" width="520" height="72" fill="#f8f9f9" stroke="#d5dbdb" rx="4"/>
<text x="36" y="606" font-size="12.5" font-family="Arial" fill="#1b2631">Hash records: 71 | Unique fingerprints: 71 | Top links shown: 10</text>
<text x="36" y="626" font-size="11" font-family="Arial" fill="#5d6d7e">Label format: Author · Category · hash prefix (title on second line)</text>
</svg>