<svg xmlns="http://www.w3.org/2000/svg" width="1320" height="840">
<rect width="100%" height="100%" fill="#ffffff"/>
<text x="24" y="36" font-size="28" font-family="Arial" font-weight="bold" fill="#17202a">Bell Labs Innovation Map</text>
<text x="24" y="60" font-size="14" font-family="Arial" fill="#5d6d7e">Clean bipartite view: Researchers on left, Categories on right, bridges shown by multiple links.</text>
<path d="M220.0,110.0 Q620.0,182.8 1020.0,318.0" stroke="#aeb6bf" fill="none" stroke-width="2.4" opacity="0.55"/>
<path d="M220.0,110.0 Q620.0,208.7 1020.0,392.0" stroke="#aeb6bf" fill="none" stroke-width="2.4" opacity="0.55"/>
<path d="M220.0,110.0 Q620.0,286.4 1020.0,614.0" stroke="#aeb6bf" fill="none" stroke-width="2.4" opacity="0.55"/>
<path d="M220.0,156.0 Q620.0,212.7 1020.0,318.0" stroke="#aeb6bf" fill="none" stroke-width="1.2" opacity="0.26"/>
<path d="M220.0,202.0 Q620.0,320.3 1020.0,540.0" stroke="#aeb6bf" fill="none" stroke-width="2.4" opacity="0.55"/>
<path d="M220.0,202.0 Q620.0,372.1 1020.0,688.0" stroke="#aeb6bf" fill="none" stroke-width="2.4" opacity="0.55"/>
<path d="M220.0,248.0 Q620.0,246.6 1020.0,244.0" stroke="#aeb6bf" fill="none" stroke-width="1.2" opacity="0.26"/>
<path d="M220.0,294.0 Q620.0,250.6 1020.0,170.0" stroke="#aeb6bf" fill="none" stroke-width="1.2" opacity="0.26"/>
<path d="M220.0,340.0 Q620.0,358.2 1020.0,392.0" stroke="#aeb6bf" fill="none" stroke-width="1.2" opacity="0.26"/>
<path d="M220.0,386.0 Q620.0,414.0 1020.0,466.0" stroke="#aeb6bf" fill="none" stroke-width="1.2" opacity="0.26"/>
<path d="M220.0,432.0 Q620.0,392.1 1020.0,318.0" stroke="#aeb6bf" fill="none" stroke-width="2.4" opacity="0.55"/>
<path d="M220.0,432.0 Q620.0,495.7 1020.0,614.0" stroke="#aeb6bf" fill="none" stroke-width="2.4" opacity="0.55"/>
<path d="M220.0,478.0 Q620.0,396.1 1020.0,244.0" stroke="#aeb6bf" fill="none" stroke-width="1.2" opacity="0.26"/>
<path d="M220.0,524.0 Q620.0,426.0 1020.0,244.0" stroke="#aeb6bf" fill="none" stroke-width="1.2" opacity="0.26"/>
<path d="M220.0,570.0 Q620.0,455.9 1020.0,244.0" stroke="#aeb6bf" fill="none" stroke-width="1.2" opacity="0.26"/>
<path d="M220.0,616.0 Q620.0,459.9 1020.0,170.0" stroke="#aeb6bf" fill="none" stroke-width="1.2" opacity="0.26"/>
<path d="M220.0,662.0 Q620.0,671.1 1020.0,688.0" stroke="#aeb6bf" fill="none" stroke-width="1.2" opacity="0.26"/>
<path d="M220.0,708.0 Q620.0,571.5 1020.0,318.0" stroke="#aeb6bf" fill="none" stroke-width="2.4" opacity="0.55"/>
<path d="M220.0,708.0 Q620.0,675.1 1020.0,614.0" stroke="#aeb6bf" fill="none" stroke-width="2.4" opacity="0.55"/>
<circle cx="220.0" cy="110.0" r="10" fill="#fef9e7" stroke="#1b2631" stroke-width="2"/>
<circle cx="220.0" cy="110.0" r="14" fill="none" stroke="#5dade2" stroke-width="1.3" stroke-dasharray="3 2"/>
<text x="236.0" y="114.0" font-size="11" font-family="Arial" fill="#1b2631">John Tukey (7 papers, 3 domains)</text>
<circle cx="220.0" cy="156.0" r="10" fill="#fef9e7" stroke="#1b2631" stroke-width="2"/>
<text x="236.0" y="160.0" font-size="11" font-family="Arial" fill="#1b2631">Claude Shannon (5 papers, 1 domains)</text>
<circle cx="220.0" cy="202.0" r="7" fill="#f8f9f9" stroke="#d5dbdb" stroke-width="2"/>
<circle cx="220.0" cy="202.0" r="11" fill="none" stroke="#5dade2" stroke-width="1.3" stroke-dasharray="3 2"/>
<text x="236.0" y="206.0" font-size="11" font-family="Arial" fill="#1b2631">John Pierce (5 papers, 2 domains)</text>
<circle cx="220.0" cy="248.0" r="7" fill="#f8f9f9" stroke="#d5dbdb" stroke-width="2"/>
<text x="236.0" y="252.0" font-size="11" font-family="Arial" fill="#1b2631">Ken Thompson (5 papers, 1 domains)</text>
<circle cx="220.0" cy="294.0" r="7" fill="#f8f9f9" stroke="#d5dbdb" stroke-width="2"/>
<text x="236.0" y="298.0" font-size="11" font-family="Arial" fill="#1b2631">William Shockley (5 papers, 1 domains)</text>
<circle cx="220.0" cy="340.0" r="7" fill="#f8f9f9" stroke="#d5dbdb" stroke-width="2"/>
<text x="236.0" y="344.0" font-size="11" font-family="Arial" fill="#1b2631">Benoit Mandelbrot (4 papers, 1 domains)</text>
<circle cx="220.0" cy="386.0" r="7" fill="#f8f9f9" stroke="#d5dbdb" stroke-width="2"/>
<text x="236.0" y="390.0" font-size="11" font-family="Arial" fill="#1b2631">Harald Friis (4 papers, 1 domains)</text>
<circle cx="220.0" cy="432.0" r="10" fill="#fef9e7" stroke="#1b2631" stroke-width="2"/>
<circle cx="220.0" cy="432.0" r="14" fill="none" stroke="#5dade2" stroke-width="1.3" stroke-dasharray="3 2"/>
<text x="236.0" y="436.0" font-size="11" font-family="Arial" fill="#1b2631">Harry Nyquist (4 papers, 2 domains)</text>
<circle cx="220.0" cy="478.0" r="7" fill="#f8f9f9" stroke="#d5dbdb" stroke-width="2"/>
<text x="236.0" y="482.0" font-size="11" font-family="Arial" fill="#1b2631">Alfred Aho (3 papers, 1 domains)</text>
<circle cx="220.0" cy="524.0" r="7" fill="#f8f9f9" stroke="#d5dbdb" stroke-width="2"/>
<text x="236.0" y="528.0" font-size="11" font-family="Arial" fill="#1b2631">Brian Kernighan (3 papers, 1 domains)</text>
<circle cx="220.0" cy="570.0" r="7" fill="#f8f9f9" stroke="#d5dbdb" stroke-width="2"/>
<text x="236.0" y="574.0" font-size="11" font-family="Arial" fill="#1b2631">Dennis Ritchie (3 papers, 1 domains)</text>
<circle cx="220.0" cy="616.0" r="7" fill="#f8f9f9" stroke="#d5dbdb" stroke-width="2"/>
<text x="236.0" y="620.0" font-size="11" font-family="Arial" fill="#1b2631">John Bardeen (3 papers, 1 domains)</text>
<circle cx="220.0" cy="662.0" r="7" fill="#f8f9f9" stroke="#d5dbdb" stroke-width="2"/>
<text x="236.0" y="666.0" font-size="11" font-family="Arial" fill="#1b2631">Rudolf Kompfner (3 papers, 1 domains)</text>
<circle cx="220.0" cy="708.0" r="10" fill="#fef9e7" stroke="#1b2631" stroke-width="2"/>
<circle cx="220.0" cy="708.0" r="14" fill="none" stroke="#5dade2" stroke-width="1.3" stroke-dasharray="3 2"/>
<text x="236.0" y="712.0" font-size="11" font-family="Arial" fill="#1b2631">Richard Hamming (2 papers, 2 domains)</text>
<circle cx="1020.0" cy="170.0" r="14" fill="#d62728" stroke="#ffffff" stroke-width="1"/>
<text x="1040.0" y="174.0" font-size="12" font-family="Arial" fill="#1b2631">Semiconductor Physics (15 papers)</text>
<circle cx="1020.0" cy="244.0" r="14" fill="#2ca02c" stroke="#ffffff" stroke-width="1"/>
<text x="1040.0" y="248.0" font-size="12" font-family="Arial" fill="#1b2631">Computing Systems (13 papers)</text>
<circle cx="1020.0" cy="318.0" r="14" fill="#1f77b4" stroke="#ffffff" stroke-width="1"/>
<text x="1040.0" y="322.0" font-size="12" font-family="Arial" fill="#1b2631">Information Theory (12 papers)</text>
<circle cx="1020.0" cy="392.0" r="14" fill="#8c564b" stroke="#ffffff" stroke-width="1"/>
<text x="1040.0" y="396.0" font-size="12" font-family="Arial" fill="#1b2631">Mathematics Statistics (8 papers)</text>
<circle cx="1020.0" cy="466.0" r="14" fill="#9467bd" stroke="#ffffff" stroke-width="1"/>
<text x="1040.0" y="470.0" font-size="12" font-family="Arial" fill="#1b2631">Radio Astronomy (7 papers)</text>
<circle cx="1020.0" cy="540.0" r="14" fill="#ff7f0e" stroke="#ffffff" stroke-width="1"/>
<text x="1040.0" y="544.0" font-size="12" font-family="Arial" fill="#1b2631">Photonics Laser (6 papers)</text>
<circle cx="1020.0" cy="614.0" r="14" fill="#17becf" stroke="#ffffff" stroke-width="1"/>
<text x="1040.0" y="618.0" font-size="12" font-family="Arial" fill="#1b2631">Network Theory (5 papers)</text>
<circle cx="1020.0" cy="688.0" r="14" fill="#e377c2" stroke="#ffffff" stroke-width="1"/>
<text x="1040.0" y="692.0" font-size="12" font-family="Arial" fill="#1b2631">Satellite Communications (5 papers)</text>
<rect x="24" y="760" width="860" height="62" rx="4" fill="#f8f9f9" stroke="#d5dbdb"/>
<text x="38" y="784" font-size="12.5" font-family="Arial" fill="#1b2631">Researchers shown: 14 | Categories shown: 8 | Cross-domain bridges: 4</text>
<text x="38" y="804" font-size="11" font-family="Arial" fill="#5d6d7e">Dashed ring = bridge researcher. Highlighted: Shannon, Nyquist, Tukey, Hamming.</text>
</svg>