<?xml version="1.0" encoding="UTF-8"?>
<svg xmlns="http://www.w3.org/2000/svg" width="1360" height="840" viewBox="0 0 1360 840">
<rect width="100%" height="100%" fill="#ffffff"/>
<defs><marker id="arrow" markerWidth="10" markerHeight="8" refX="9" refY="4" orient="auto" markerUnits="strokeWidth"><path d="M0,0 L10,4 L0,8 z" fill="#7f8c8d"/></marker></defs>
<text x="24" y="38" font-size="24" font-family="Arial" font-weight="bold" fill="#17202a">Directed Paper Flow Network (Cleaner Timeline View)</text>
<text x="24" y="60" font-size="13" font-family="Arial" fill="#566573">Arrows stay above timeline, while labels are placed below in rows to prevent overlap.</text>
<line x1="120" y1="270" x2="1240" y2="270" stroke="#cfd8dc" stroke-width="1.5"/>
<line x1="120.0" y1="95" x2="120.0" y2="644" stroke="#ecf0f1"/>
<text x="108.0" y="88" font-size="10.5" font-family="Arial" fill="#7b8a8b">1933</text>
<line x1="145.5" y1="95" x2="145.5" y2="644" stroke="#ecf0f1"/>
<text x="133.5" y="88" font-size="10.5" font-family="Arial" fill="#7b8a8b">1934</text>
<line x1="170.9" y1="95" x2="170.9" y2="644" stroke="#ecf0f1"/>
<text x="158.9" y="88" font-size="10.5" font-family="Arial" fill="#7b8a8b">1935</text>
<line x1="501.8" y1="95" x2="501.8" y2="644" stroke="#ecf0f1"/>
<text x="489.8" y="88" font-size="10.5" font-family="Arial" fill="#7b8a8b">1948</text>
<line x1="578.2" y1="95" x2="578.2" y2="644" stroke="#ecf0f1"/>
<text x="566.2" y="88" font-size="10.5" font-family="Arial" fill="#7b8a8b">1951</text>
<line x1="858.2" y1="95" x2="858.2" y2="644" stroke="#ecf0f1"/>
<text x="846.2" y="88" font-size="10.5" font-family="Arial" fill="#7b8a8b">1962</text>
<line x1="883.6" y1="95" x2="883.6" y2="644" stroke="#ecf0f1"/>
<text x="871.6" y="88" font-size="10.5" font-family="Arial" fill="#7b8a8b">1963</text>
<line x1="960.0" y1="95" x2="960.0" y2="644" stroke="#ecf0f1"/>
<text x="948.0" y="88" font-size="10.5" font-family="Arial" fill="#7b8a8b">1966</text>
<line x1="1010.9" y1="95" x2="1010.9" y2="644" stroke="#ecf0f1"/>
<text x="998.9" y="88" font-size="10.5" font-family="Arial" fill="#7b8a8b">1968</text>
<line x1="1112.7" y1="95" x2="1112.7" y2="644" stroke="#ecf0f1"/>
<text x="1100.7" y="88" font-size="10.5" font-family="Arial" fill="#7b8a8b">1972</text>
<line x1="1163.6" y1="95" x2="1163.6" y2="644" stroke="#ecf0f1"/>
<text x="1151.6" y="88" font-size="10.5" font-family="Arial" fill="#7b8a8b">1974</text>
<line x1="1189.1" y1="95" x2="1189.1" y2="644" stroke="#ecf0f1"/>
<text x="1177.1" y="88" font-size="10.5" font-family="Arial" fill="#7b8a8b">1975</text>
<line x1="1240.0" y1="95" x2="1240.0" y2="644" stroke="#ecf0f1"/>
<text x="1228.0" y="88" font-size="10.5" font-family="Arial" fill="#7b8a8b">1977</text>
<path d="M1010.9,270.0 Q1100.0,137.1 1189.1,270.0" stroke="#7f8c8d" fill="none" stroke-width="3.97" opacity="0.68" marker-end="url(#arrow)"/>
<path d="M858.2,270.0 Q1049.1,145.3 1240.0,270.0" stroke="#7f8c8d" fill="none" stroke-width="3.71" opacity="0.68" marker-end="url(#arrow)"/>
<path d="M120.0,270.0 Q145.5,132.0 170.9,270.0" stroke="#7f8c8d" fill="none" stroke-width="3.27" opacity="0.68" marker-end="url(#arrow)"/>
<path d="M960.0,270.0 Q1036.4,136.1 1112.7,270.0" stroke="#7f8c8d" fill="none" stroke-width="3.27" opacity="0.68" marker-end="url(#arrow)"/>
<path d="M960.0,270.0 Q960.0,130.0 960.0,270.0" stroke="#7f8c8d" fill="none" stroke-width="3.15" opacity="0.68" marker-end="url(#arrow)"/>
<path d="M501.8,270.0 Q540.0,133.1 578.2,270.0" stroke="#7f8c8d" fill="none" stroke-width="3.15" opacity="0.68" marker-end="url(#arrow)"/>
<path d="M145.5,270.0 Q514.5,159.5 883.6,270.0" stroke="#7f8c8d" fill="none" stroke-width="3.14" opacity="0.68" marker-end="url(#arrow)"/>
<path d="M1112.7,270.0 Q1138.2,132.0 1163.6,270.0" stroke="#7f8c8d" fill="none" stroke-width="3.10" opacity="0.68" marker-end="url(#arrow)"/>
<circle cx="120.0" cy="270.0" r="7" fill="#9467bd" stroke="#ffffff" stroke-width="1"/>
<circle cx="145.5" cy="270.0" r="7" fill="#17becf" stroke="#ffffff" stroke-width="1"/>
<circle cx="170.9" cy="270.0" r="7" fill="#9467bd" stroke="#ffffff" stroke-width="1"/>
<circle cx="501.8" cy="270.0" r="7" fill="#d62728" stroke="#ffffff" stroke-width="1"/>
<circle cx="578.2" cy="270.0" r="7" fill="#d62728" stroke="#ffffff" stroke-width="1"/>
<circle cx="858.2" cy="270.0" r="7" fill="#8c564b" stroke="#ffffff" stroke-width="1"/>
<circle cx="883.6" cy="270.0" r="7" fill="#e377c2" stroke="#ffffff" stroke-width="1"/>
<circle cx="960.0" cy="270.0" r="7" fill="#ff7f0e" stroke="#ffffff" stroke-width="1"/>
<circle cx="960.0" cy="270.0" r="7" fill="#ff7f0e" stroke="#ffffff" stroke-width="1"/>
<circle cx="1010.9" cy="270.0" r="7" fill="#2ca02c" stroke="#ffffff" stroke-width="1"/>
<circle cx="1112.7" cy="270.0" r="7" fill="#ff7f0e" stroke="#ffffff" stroke-width="1"/>
<circle cx="1112.7" cy="270.0" r="7" fill="#2ca02c" stroke="#ffffff" stroke-width="1"/>
<circle cx="1163.6" cy="270.0" r="7" fill="#2ca02c" stroke="#ffffff" stroke-width="1"/>
<circle cx="1189.1" cy="270.0" r="7" fill="#2ca02c" stroke="#ffffff" stroke-width="1"/>
<circle cx="1240.0" cy="270.0" r="7" fill="#8c564b" stroke="#ffffff" stroke-width="1"/>
<line x1="120.0" y1="278" x2="120.0" y2="338.0" stroke="#d6dbdf" stroke-width="1"/>
<rect x="128.0" y="330.0" width="330" height="36" rx="4" fill="#ffffff" stroke="#d5dbdb"/>
<text x="136.0" y="344.0" font-size="10.8" font-family="Arial" fill="#1b2631">Karl Jansky · Radio Astronomy</text>
<text x="136.0" y="358.0" font-size="10" font-family="Arial" fill="#5d6d7e">Electrical Disturbances Apparently of Ext…</text>
<line x1="145.5" y1="278" x2="145.5" y2="390.0" stroke="#d6dbdf" stroke-width="1"/>
<rect x="153.5" y="382.0" width="330" height="36" rx="4" fill="#ffffff" stroke="#d5dbdb"/>
<text x="161.5" y="396.0" font-size="10.8" font-family="Arial" fill="#1b2631">Harry Nyquist +1 · Network Theory</text>
<text x="161.5" y="410.0" font-size="10" font-family="Arial" fill="#5d6d7e">Regenerative Current Action in Communicat…</text>
<line x1="170.9" y1="278" x2="170.9" y2="442.0" stroke="#d6dbdf" stroke-width="1"/>
<rect x="178.9" y="434.0" width="330" height="36" rx="4" fill="#ffffff" stroke="#d5dbdb"/>
<text x="186.9" y="448.0" font-size="10.8" font-family="Arial" fill="#1b2631">Karl Jansky · Radio Astronomy</text>
<text x="186.9" y="462.0" font-size="10" font-family="Arial" fill="#5d6d7e">Radio Emission from Radio-Frequency Radia…</text>
<line x1="501.8" y1="278" x2="501.8" y2="494.0" stroke="#d6dbdf" stroke-width="1"/>
<rect x="509.8" y="486.0" width="330" height="36" rx="4" fill="#ffffff" stroke="#d5dbdb"/>
<text x="517.8" y="500.0" font-size="10.8" font-family="Arial" fill="#1b2631">John Bardeen +1 · Semiconductor Physics</text>
<text x="517.8" y="514.0" font-size="10" font-family="Arial" fill="#5d6d7e">The Transistor, A Semi-Conductor Triode</text>
<line x1="578.2" y1="278" x2="578.2" y2="546.0" stroke="#d6dbdf" stroke-width="1"/>
<rect x="586.2" y="538.0" width="330" height="36" rx="4" fill="#ffffff" stroke="#d5dbdb"/>
<text x="594.2" y="552.0" font-size="10.8" font-family="Arial" fill="#1b2631">William Shockley · Semiconductor Physics</text>
<text x="594.2" y="566.0" font-size="10" font-family="Arial" fill="#5d6d7e">Bipolar Junction Transistor Theory</text>
<line x1="858.2" y1="278" x2="858.2" y2="598.0" stroke="#d6dbdf" stroke-width="1"/>
<rect x="866.2" y="590.0" width="330" height="36" rx="4" fill="#ffffff" stroke="#d5dbdb"/>
<text x="874.2" y="604.0" font-size="10.8" font-family="Arial" fill="#1b2631">John Tukey · Mathematics Statistics</text>
<text x="874.2" y="618.0" font-size="10" font-family="Arial" fill="#5d6d7e">The Future of Data Analysis</text>
<line x1="883.6" y1="278" x2="883.6" y2="650.0" stroke="#d6dbdf" stroke-width="1"/>
<rect x="891.6" y="642.0" width="330" height="36" rx="4" fill="#ffffff" stroke="#d5dbdb"/>
<text x="899.6" y="656.0" font-size="10.8" font-family="Arial" fill="#1b2631">Harold Rosen +1 · Satellite Communications</text>
<text x="899.6" y="670.0" font-size="10" font-family="Arial" fill="#5d6d7e">Telstar: First Active Communications Sate…</text>
<line x1="960.0" y1="278" x2="960.0" y2="702.0" stroke="#d6dbdf" stroke-width="1"/>
<rect x="968.0" y="694.0" width="330" height="36" rx="4" fill="#ffffff" stroke="#d5dbdb"/>
<text x="976.0" y="708.0" font-size="10.8" font-family="Arial" fill="#1b2631">Charles Kao +1 · Photonics Laser</text>
<text x="976.0" y="722.0" font-size="10" font-family="Arial" fill="#5d6d7e">Dielectric-Fiber Surface Waveguides for O…</text>
<line x1="960.0" y1="278" x2="960.0" y2="754.0" stroke="#d6dbdf" stroke-width="1"/>
<rect x="968.0" y="746.0" width="330" height="36" rx="4" fill="#ffffff" stroke="#d5dbdb"/>
<text x="976.0" y="760.0" font-size="10.8" font-family="Arial" fill="#1b2631">Stewart Miller +1 · Photonics Laser</text>
<text x="976.0" y="774.0" font-size="10" font-family="Arial" fill="#5d6d7e">Optical Fiber Communications</text>
<line x1="1010.9" y1="278" x2="1010.9" y2="806.0" stroke="#d6dbdf" stroke-width="1"/>
<rect x="1018.9" y="798.0" width="330" height="36" rx="4" fill="#ffffff" stroke="#d5dbdb"/>
<text x="1026.9" y="812.0" font-size="10.8" font-family="Arial" fill="#1b2631">Ken Thompson · Computing Systems</text>
<text x="1026.9" y="826.0" font-size="10" font-family="Arial" fill="#5d6d7e">Regular Expression Search Algorithm</text>
<line x1="1112.7" y1="278" x2="1112.7" y2="858.0" stroke="#d6dbdf" stroke-width="1"/>
<rect x="1120.7" y="850.0" width="330" height="36" rx="4" fill="#ffffff" stroke="#d5dbdb"/>
<text x="1128.7" y="864.0" font-size="10.8" font-family="Arial" fill="#1b2631">Tingye Li +1 · Photonics Laser</text>
<text x="1128.7" y="878.0" font-size="10" font-family="Arial" fill="#5d6d7e">Low-Loss Optical Fiber</text>
<line x1="1112.7" y1="278" x2="1112.7" y2="910.0" stroke="#d6dbdf" stroke-width="1"/>
<rect x="1120.7" y="902.0" width="330" height="36" rx="4" fill="#ffffff" stroke="#d5dbdb"/>
<text x="1128.7" y="916.0" font-size="10.8" font-family="Arial" fill="#1b2631">Dennis Ritchie +1 · Computing Systems</text>
<text x="1128.7" y="930.0" font-size="10" font-family="Arial" fill="#5d6d7e">MULTICS: The First Seven Years</text>
<line x1="1163.6" y1="278" x2="1163.6" y2="962.0" stroke="#d6dbdf" stroke-width="1"/>
<rect x="1171.6" y="954.0" width="330" height="36" rx="4" fill="#ffffff" stroke="#d5dbdb"/>
<text x="1179.6" y="968.0" font-size="10.8" font-family="Arial" fill="#1b2631">Dennis Ritchie +1 · Computing Systems</text>
<text x="1179.6" y="982.0" font-size="10" font-family="Arial" fill="#5d6d7e">The UNIX Time-Sharing System</text>
<line x1="1189.1" y1="278" x2="1189.1" y2="1014.0" stroke="#d6dbdf" stroke-width="1"/>
<rect x="1197.1" y="1006.0" width="330" height="36" rx="4" fill="#ffffff" stroke="#d5dbdb"/>
<text x="1205.1" y="1020.0" font-size="10.8" font-family="Arial" fill="#1b2631">Alfred Aho +1 · Computing Systems</text>
<text x="1205.1" y="1034.0" font-size="10" font-family="Arial" fill="#5d6d7e">A Regular Expression Matcher</text>
<line x1="1240.0" y1="278" x2="1240.0" y2="1066.0" stroke="#d6dbdf" stroke-width="1"/>
<rect x="1248.0" y="1058.0" width="330" height="36" rx="4" fill="#ffffff" stroke="#d5dbdb"/>
<text x="1256.0" y="1072.0" font-size="10.8" font-family="Arial" fill="#1b2631">John Tukey · Mathematics Statistics</text>
<text x="1256.0" y="1086.0" font-size="10" font-family="Arial" fill="#5d6d7e">Exploratory Data Analysis</text>
<rect x="24" y="772" width="600" height="52" fill="#f8f9f9" stroke="#d5dbdb" rx="4"/>
<text x="36" y="794" font-size="12.5" font-family="Arial" fill="#1b2631">Papers shown: 15 | Similarity arrows: 8</text>
<text x="36" y="813" font-size="11" font-family="Arial" fill="#5d6d7e">No stacked labels: all annotation cards are separated into clean rows below the timeline.</text>
</svg>