<?xml version="1.0" encoding="UTF-8"?>
<svg xmlns="http://www.w3.org/2000/svg" width="1320" height="760" viewBox="0 0 1320 760">
<rect width="100%" height="100%" fill="#ffffff"/>
<text x="24" y="38" font-size="24" font-family="Arial" font-weight="bold" fill="#17202a">Hash Similarity Links (Readable Pair View)</text>
<text x="24" y="60" font-size="13" font-family="Arial" fill="#566573">Each row is one high-similarity pair with author + category labels (no stacked overlaps).</text>
<line x1="210" y1="106" x2="830" y2="106" stroke="#9ec4de" stroke-width="4.86"/>
<circle cx="210" cy="106" r="7" fill="#2e86c1" stroke="#fff" stroke-width="1"/>
<circle cx="830" cy="106" r="7" fill="#2e86c1" stroke="#fff" stroke-width="1"/>
<rect x="24" y="88" width="520" height="34" rx="4" fill="#ffffff" stroke="#d5dbdb"/>
<text x="34" y="101" font-size="10.8" font-family="Arial" fill="#1b2631">Ken Thompson · Computing Systems · hash 18afc8</text>
<text x="34" y="115" font-size="10" font-family="Arial" fill="#5d6d7e">Regular Expression Search Algorit…</text>
<rect x="884" y="88" width="410" height="34" rx="4" fill="#ffffff" stroke="#d5dbdb"/>
<text x="894" y="101" font-size="10.8" font-family="Arial" fill="#1b2631">Alfred Aho +1 · Computing Systems · hash 595256</text>
<text x="894" y="115" font-size="10" font-family="Arial" fill="#5d6d7e">A Regular Expression Matcher</text>
<rect x="614" y="93" width="92" height="26" rx="12" fill="#eef5fb" stroke="#c6d9ea"/>
<text x="634" y="110" font-size="11" font-family="Arial" fill="#1b2631">sim: 0.864</text>
<line x1="210" y1="162" x2="830" y2="162" stroke="#9ec4de" stroke-width="4.54"/>
<circle cx="210" cy="162" r="7" fill="#2e86c1" stroke="#fff" stroke-width="1"/>
<circle cx="830" cy="162" r="7" fill="#2e86c1" stroke="#fff" stroke-width="1"/>
<rect x="24" y="144" width="520" height="34" rx="4" fill="#ffffff" stroke="#d5dbdb"/>
<text x="34" y="157" font-size="10.8" font-family="Arial" fill="#1b2631">John Tukey · Mathematics Statistics · hash c7bf30</text>
<text x="34" y="171" font-size="10" font-family="Arial" fill="#5d6d7e">The Future of Data Analysis</text>
<rect x="884" y="144" width="410" height="34" rx="4" fill="#ffffff" stroke="#d5dbdb"/>
<text x="894" y="157" font-size="10.8" font-family="Arial" fill="#1b2631">John Tukey · Mathematics Statistics · hash 67cd80</text>
<text x="894" y="171" font-size="10" font-family="Arial" fill="#5d6d7e">Exploratory Data Analysis</text>
<rect x="614" y="149" width="92" height="26" rx="12" fill="#eef5fb" stroke="#c6d9ea"/>
<text x="634" y="166" font-size="11" font-family="Arial" fill="#1b2631">sim: 0.785</text>
<line x1="210" y1="218" x2="830" y2="218" stroke="#9ec4de" stroke-width="3.99"/>
<circle cx="210" cy="218" r="7" fill="#2e86c1" stroke="#fff" stroke-width="1"/>
<circle cx="830" cy="218" r="7" fill="#2e86c1" stroke="#fff" stroke-width="1"/>
<rect x="24" y="200" width="520" height="34" rx="4" fill="#ffffff" stroke="#d5dbdb"/>
<text x="34" y="213" font-size="10.8" font-family="Arial" fill="#1b2631">Karl Jansky · Radio Astronomy · hash 7016d2</text>
<text x="34" y="227" font-size="10" font-family="Arial" fill="#5d6d7e">Electrical Disturbances Apparentl…</text>
<rect x="884" y="200" width="410" height="34" rx="4" fill="#ffffff" stroke="#d5dbdb"/>
<text x="894" y="213" font-size="10.8" font-family="Arial" fill="#1b2631">Karl Jansky · Radio Astronomy · hash 390043</text>
<text x="894" y="227" font-size="10" font-family="Arial" fill="#5d6d7e">Radio Emission from Radio-Frequen…</text>
<rect x="614" y="205" width="92" height="26" rx="12" fill="#eef5fb" stroke="#c6d9ea"/>
<text x="634" y="222" font-size="11" font-family="Arial" fill="#1b2631">sim: 0.648</text>
<line x1="210" y1="274" x2="830" y2="274" stroke="#9ec4de" stroke-width="3.98"/>
<circle cx="210" cy="274" r="7" fill="#2e86c1" stroke="#fff" stroke-width="1"/>
<circle cx="830" cy="274" r="7" fill="#2e86c1" stroke="#fff" stroke-width="1"/>
<rect x="24" y="256" width="520" height="34" rx="4" fill="#ffffff" stroke="#d5dbdb"/>
<text x="34" y="269" font-size="10.8" font-family="Arial" fill="#1b2631">Charles Kao +1 · Photonics Laser · hash 087a35</text>
<text x="34" y="283" font-size="10" font-family="Arial" fill="#5d6d7e">Dielectric-Fiber Surface Waveguid…</text>
<rect x="884" y="256" width="410" height="34" rx="4" fill="#ffffff" stroke="#d5dbdb"/>
<text x="894" y="269" font-size="10.8" font-family="Arial" fill="#1b2631">Tingye Li +1 · Photonics Laser · hash 2e62fe</text>
<text x="894" y="283" font-size="10" font-family="Arial" fill="#5d6d7e">Low-Loss Optical Fiber</text>
<rect x="614" y="261" width="92" height="26" rx="12" fill="#eef5fb" stroke="#c6d9ea"/>
<text x="634" y="278" font-size="11" font-family="Arial" fill="#1b2631">sim: 0.646</text>
<line x1="210" y1="330" x2="830" y2="330" stroke="#9ec4de" stroke-width="3.83"/>
<circle cx="210" cy="330" r="7" fill="#2e86c1" stroke="#fff" stroke-width="1"/>
<circle cx="830" cy="330" r="7" fill="#2e86c1" stroke="#fff" stroke-width="1"/>
<rect x="24" y="312" width="520" height="34" rx="4" fill="#ffffff" stroke="#d5dbdb"/>
<text x="34" y="325" font-size="10.8" font-family="Arial" fill="#1b2631">Charles Kao +1 · Photonics Laser · hash 087a35</text>
<text x="34" y="339" font-size="10" font-family="Arial" fill="#5d6d7e">Dielectric-Fiber Surface Waveguid…</text>
<rect x="884" y="312" width="410" height="34" rx="4" fill="#ffffff" stroke="#d5dbdb"/>
<text x="894" y="325" font-size="10.8" font-family="Arial" fill="#1b2631">Stewart Miller +1 · Photonics Laser · hash f5d103</text>
<text x="894" y="339" font-size="10" font-family="Arial" fill="#5d6d7e">Optical Fiber Communications</text>
<rect x="614" y="317" width="92" height="26" rx="12" fill="#eef5fb" stroke="#c6d9ea"/>
<text x="634" y="334" font-size="11" font-family="Arial" fill="#1b2631">sim: 0.608</text>
<line x1="210" y1="386" x2="830" y2="386" stroke="#9ec4de" stroke-width="3.83"/>
<circle cx="210" cy="386" r="7" fill="#2e86c1" stroke="#fff" stroke-width="1"/>
<circle cx="830" cy="386" r="7" fill="#2e86c1" stroke="#fff" stroke-width="1"/>
<rect x="24" y="368" width="520" height="34" rx="4" fill="#ffffff" stroke="#d5dbdb"/>
<text x="34" y="381" font-size="10.8" font-family="Arial" fill="#1b2631">John Bardeen +1 · Semiconductor Physics · hash d45d5d</text>
<text x="34" y="395" font-size="10" font-family="Arial" fill="#5d6d7e">The Transistor, A Semi-Conductor …</text>
<rect x="884" y="368" width="410" height="34" rx="4" fill="#ffffff" stroke="#d5dbdb"/>
<text x="894" y="381" font-size="10.8" font-family="Arial" fill="#1b2631">William Shockley · Semiconductor Physics · hash 704b5f</text>
<text x="894" y="395" font-size="10" font-family="Arial" fill="#5d6d7e">Bipolar Junction Transistor Theory</text>
<rect x="614" y="373" width="92" height="26" rx="12" fill="#eef5fb" stroke="#c6d9ea"/>
<text x="634" y="390" font-size="11" font-family="Arial" fill="#1b2631">sim: 0.608</text>
<line x1="210" y1="442" x2="830" y2="442" stroke="#9ec4de" stroke-width="3.83"/>
<circle cx="210" cy="442" r="7" fill="#2e86c1" stroke="#fff" stroke-width="1"/>
<circle cx="830" cy="442" r="7" fill="#2e86c1" stroke="#fff" stroke-width="1"/>
<rect x="24" y="424" width="520" height="34" rx="4" fill="#ffffff" stroke="#d5dbdb"/>
<text x="34" y="437" font-size="10.8" font-family="Arial" fill="#1b2631">Harry Nyquist +1 · Network Theory · hash 37054d</text>
<text x="34" y="451" font-size="10" font-family="Arial" fill="#5d6d7e">Regenerative Current Action in Co…</text>
<rect x="884" y="424" width="410" height="34" rx="4" fill="#ffffff" stroke="#d5dbdb"/>
<text x="894" y="437" font-size="10.8" font-family="Arial" fill="#1b2631">Harold Rosen +1 · Satellite Communications · hash d88f87</text>
<text x="894" y="451" font-size="10" font-family="Arial" fill="#5d6d7e">Telstar: First Active Communicati…</text>
<rect x="614" y="429" width="92" height="26" rx="12" fill="#eef5fb" stroke="#c6d9ea"/>
<text x="634" y="446" font-size="11" font-family="Arial" fill="#1b2631">sim: 0.608</text>
<line x1="210" y1="498" x2="830" y2="498" stroke="#9ec4de" stroke-width="3.77"/>
<circle cx="210" cy="498" r="7" fill="#2e86c1" stroke="#fff" stroke-width="1"/>
<circle cx="830" cy="498" r="7" fill="#2e86c1" stroke="#fff" stroke-width="1"/>
<rect x="24" y="480" width="520" height="34" rx="4" fill="#ffffff" stroke="#d5dbdb"/>
<text x="34" y="493" font-size="10.8" font-family="Arial" fill="#1b2631">Dennis Ritchie +1 · Computing Systems · hash 240bd9</text>
<text x="34" y="507" font-size="10" font-family="Arial" fill="#5d6d7e">MULTICS: The First Seven Years</text>
<rect x="884" y="480" width="410" height="34" rx="4" fill="#ffffff" stroke="#d5dbdb"/>
<text x="894" y="493" font-size="10.8" font-family="Arial" fill="#1b2631">Dennis Ritchie +1 · Computing Systems · hash cd2c02</text>
<text x="894" y="507" font-size="10" font-family="Arial" fill="#5d6d7e">The UNIX Time-Sharing System</text>
<rect x="614" y="485" width="92" height="26" rx="12" fill="#eef5fb" stroke="#c6d9ea"/>
<text x="634" y="502" font-size="11" font-family="Arial" fill="#1b2631">sim: 0.593</text>
<line x1="210" y1="554" x2="830" y2="554" stroke="#9ec4de" stroke-width="3.75"/>
<circle cx="210" cy="554" r="7" fill="#2e86c1" stroke="#fff" stroke-width="1"/>
<circle cx="830" cy="554" r="7" fill="#2e86c1" stroke="#fff" stroke-width="1"/>
<rect x="24" y="536" width="520" height="34" rx="4" fill="#ffffff" stroke="#d5dbdb"/>
<text x="34" y="549" font-size="10.8" font-family="Arial" fill="#1b2631">John Bardeen +1 · Semiconductor Physics · hash d45d5d</text>
<text x="34" y="563" font-size="10" font-family="Arial" fill="#5d6d7e">The Transistor, A Semi-Conductor …</text>
<rect x="884" y="536" width="410" height="34" rx="4" fill="#ffffff" stroke="#d5dbdb"/>
<text x="894" y="549" font-size="10.8" font-family="Arial" fill="#1b2631">William Shockley · Semiconductor Physics · hash 8e898b</text>
<text x="894" y="563" font-size="10" font-family="Arial" fill="#5d6d7e">Electrons and Holes in Semiconduc…</text>
<rect x="614" y="541" width="92" height="26" rx="12" fill="#eef5fb" stroke="#c6d9ea"/>
<text x="634" y="558" font-size="11" font-family="Arial" fill="#1b2631">sim: 0.589</text>
<line x1="210" y1="610" x2="830" y2="610" stroke="#9ec4de" stroke-width="3.65"/>
<circle cx="210" cy="610" r="7" fill="#2e86c1" stroke="#fff" stroke-width="1"/>
<circle cx="830" cy="610" r="7" fill="#2e86c1" stroke="#fff" stroke-width="1"/>
<rect x="24" y="592" width="520" height="34" rx="4" fill="#ffffff" stroke="#d5dbdb"/>
<text x="34" y="605" font-size="10.8" font-family="Arial" fill="#1b2631">John Pierce +1 · Satellite Communications · hash 0430ad</text>
<text x="34" y="619" font-size="10" font-family="Arial" fill="#5d6d7e">Echo: America&#x27;s First Communicati…</text>
<rect x="884" y="592" width="410" height="34" rx="4" fill="#ffffff" stroke="#d5dbdb"/>
<text x="894" y="605" font-size="10.8" font-family="Arial" fill="#1b2631">Harold Rosen +1 · Satellite Communications · hash d88f87</text>
<text x="894" y="619" font-size="10" font-family="Arial" fill="#5d6d7e">Telstar: First Active Communicati…</text>
<rect x="614" y="597" width="92" height="26" rx="12" fill="#eef5fb" stroke="#c6d9ea"/>
<text x="634" y="614" font-size="11" font-family="Arial" fill="#1b2631">sim: 0.564</text>
<rect x="24" y="676" width="620" height="58" fill="#f8f9f9" stroke="#d5dbdb" rx="4"/>
<text x="36" y="699" font-size="12.5" font-family="Arial" fill="#1b2631">Hash records: 71 | Unique fingerprints: 71 | Pair links shown: 10</text>
<text x="36" y="719" font-size="11" font-family="Arial" fill="#5d6d7e">Format: Author · Category + short title for each side of every pair.</text>
</svg>