<?xml version="1.0" encoding="UTF-8"?>
<svg xmlns="http://www.w3.org/2000/svg" width="1400" height="980" viewBox="0 0 1400 980">
<rect width="100%" height="100%" fill="#ffffff"/>
<text x="24" y="38" font-size="28" font-family="Arial" font-weight="bold" fill="#17202a">Bell Labs Innovation Map</text>
<text x="24" y="60" font-size="14" font-family="Arial" fill="#566573">Researchers (left) linked to categories (right). Ordered to reduce crossings and keep labels readable.</text>
<path d="M210.0,108.0 Q677.5,118.5 1060.0,150.0" stroke="#aeb6bf" fill="none" stroke-width="1.1" opacity="0.23"/>
<path d="M210.0,166.0 Q677.5,162.0 1060.0,150.0" stroke="#aeb6bf" fill="none" stroke-width="1.1" opacity="0.23"/>
<path d="M210.0,224.0 Q677.5,230.0 1060.0,248.0" stroke="#aeb6bf" fill="none" stroke-width="1.1" opacity="0.23"/>
<path d="M210.0,282.0 Q677.5,273.5 1060.0,248.0" stroke="#aeb6bf" fill="none" stroke-width="1.1" opacity="0.23"/>
<path d="M210.0,340.0 Q677.5,317.0 1060.0,248.0" stroke="#aeb6bf" fill="none" stroke-width="1.1" opacity="0.23"/>
<path d="M210.0,398.0 Q677.5,360.5 1060.0,248.0" stroke="#aeb6bf" fill="none" stroke-width="1.1" opacity="0.23"/>
<path d="M210.0,456.0 Q677.5,428.5 1060.0,346.0" stroke="#aeb6bf" fill="none" stroke-width="1.1" opacity="0.23"/>
<path d="M210.0,514.0 Q677.5,472.0 1060.0,346.0" stroke="#aeb6bf" fill="none" stroke-width="2.2" opacity="0.52"/>
<path d="M210.0,514.0 Q677.5,570.0 1060.0,738.0" stroke="#aeb6bf" fill="none" stroke-width="2.2" opacity="0.52"/>
<path d="M210.0,572.0 Q677.5,515.5 1060.0,346.0" stroke="#aeb6bf" fill="none" stroke-width="2.2" opacity="0.52"/>
<path d="M210.0,572.0 Q677.5,540.0 1060.0,444.0" stroke="#aeb6bf" fill="none" stroke-width="2.2" opacity="0.52"/>
<path d="M210.0,572.0 Q677.5,613.5 1060.0,738.0" stroke="#aeb6bf" fill="none" stroke-width="2.2" opacity="0.52"/>
<path d="M210.0,630.0 Q677.5,559.0 1060.0,346.0" stroke="#aeb6bf" fill="none" stroke-width="2.2" opacity="0.52"/>
<path d="M210.0,630.0 Q677.5,657.0 1060.0,738.0" stroke="#aeb6bf" fill="none" stroke-width="2.2" opacity="0.52"/>
<path d="M210.0,688.0 Q677.5,627.0 1060.0,444.0" stroke="#aeb6bf" fill="none" stroke-width="1.1" opacity="0.23"/>
<path d="M210.0,746.0 Q677.5,695.0 1060.0,542.0" stroke="#aeb6bf" fill="none" stroke-width="1.1" opacity="0.23"/>
<path d="M210.0,804.0 Q677.5,763.0 1060.0,640.0" stroke="#aeb6bf" fill="none" stroke-width="2.2" opacity="0.52"/>
<path d="M210.0,804.0 Q677.5,812.0 1060.0,836.0" stroke="#aeb6bf" fill="none" stroke-width="2.2" opacity="0.52"/>
<path d="M210.0,862.0 Q677.5,855.5 1060.0,836.0" stroke="#aeb6bf" fill="none" stroke-width="1.1" opacity="0.23"/>
<circle cx="210.0" cy="108.0" r="7" fill="#f8f9f9" stroke="#d5dbdb" stroke-width="2"/>
<text x="226.0" y="112.0" font-size="11.5" font-family="Arial" fill="#1b2631">John Bardeen (3 papers, 1 domains)</text>
<circle cx="210.0" cy="166.0" r="7" fill="#f8f9f9" stroke="#d5dbdb" stroke-width="2"/>
<text x="226.0" y="170.0" font-size="11.5" font-family="Arial" fill="#1b2631">William Shockley (5 papers, 1 domains)</text>
<circle cx="210.0" cy="224.0" r="7" fill="#f8f9f9" stroke="#d5dbdb" stroke-width="2"/>
<text x="226.0" y="228.0" font-size="11.5" font-family="Arial" fill="#1b2631">Alfred Aho (3 papers, 1 domains)</text>
<circle cx="210.0" cy="282.0" r="7" fill="#f8f9f9" stroke="#d5dbdb" stroke-width="2"/>
<text x="226.0" y="286.0" font-size="11.5" font-family="Arial" fill="#1b2631">Brian Kernighan (3 papers, 1 domains)</text>
<circle cx="210.0" cy="340.0" r="7" fill="#f8f9f9" stroke="#d5dbdb" stroke-width="2"/>
<text x="226.0" y="344.0" font-size="11.5" font-family="Arial" fill="#1b2631">Dennis Ritchie (3 papers, 1 domains)</text>
<circle cx="210.0" cy="398.0" r="7" fill="#f8f9f9" stroke="#d5dbdb" stroke-width="2"/>
<text x="226.0" y="402.0" font-size="11.5" font-family="Arial" fill="#1b2631">Ken Thompson (5 papers, 1 domains)</text>
<circle cx="210.0" cy="456.0" r="10" fill="#fef9e7" stroke="#1b2631" stroke-width="2"/>
<text x="226.0" y="460.0" font-size="11.5" font-family="Arial" fill="#1b2631">Claude Shannon (5 papers, 1 domains)</text>
<circle cx="210.0" cy="514.0" r="10" fill="#fef9e7" stroke="#1b2631" stroke-width="2"/>
<circle cx="210.0" cy="514.0" r="14" fill="none" stroke="#5dade2" stroke-width="1.3" stroke-dasharray="3 2"/>
<text x="226.0" y="518.0" font-size="11.5" font-family="Arial" fill="#1b2631">Harry Nyquist (4 papers, 2 domains)</text>
<circle cx="210.0" cy="572.0" r="10" fill="#fef9e7" stroke="#1b2631" stroke-width="2"/>
<circle cx="210.0" cy="572.0" r="14" fill="none" stroke="#5dade2" stroke-width="1.3" stroke-dasharray="3 2"/>
<text x="226.0" y="576.0" font-size="11.5" font-family="Arial" fill="#1b2631">John Tukey (7 papers, 3 domains)</text>
<circle cx="210.0" cy="630.0" r="10" fill="#fef9e7" stroke="#1b2631" stroke-width="2"/>
<circle cx="210.0" cy="630.0" r="14" fill="none" stroke="#5dade2" stroke-width="1.3" stroke-dasharray="3 2"/>
<text x="226.0" y="634.0" font-size="11.5" font-family="Arial" fill="#1b2631">Richard Hamming (2 papers, 2 domains)</text>
<circle cx="210.0" cy="688.0" r="7" fill="#f8f9f9" stroke="#d5dbdb" stroke-width="2"/>
<text x="226.0" y="692.0" font-size="11.5" font-family="Arial" fill="#1b2631">Benoit Mandelbrot (4 papers, 1 domains)</text>
<circle cx="210.0" cy="746.0" r="7" fill="#f8f9f9" stroke="#d5dbdb" stroke-width="2"/>
<text x="226.0" y="750.0" font-size="11.5" font-family="Arial" fill="#1b2631">Harald Friis (4 papers, 1 domains)</text>
<circle cx="210.0" cy="804.0" r="7" fill="#f8f9f9" stroke="#d5dbdb" stroke-width="2"/>
<circle cx="210.0" cy="804.0" r="11" fill="none" stroke="#5dade2" stroke-width="1.3" stroke-dasharray="3 2"/>
<text x="226.0" y="808.0" font-size="11.5" font-family="Arial" fill="#1b2631">John Pierce (5 papers, 2 domains)</text>
<circle cx="210.0" cy="862.0" r="7" fill="#f8f9f9" stroke="#d5dbdb" stroke-width="2"/>
<text x="226.0" y="866.0" font-size="11.5" font-family="Arial" fill="#1b2631">Rudolf Kompfner (3 papers, 1 domains)</text>
<circle cx="1060.0" cy="150.0" r="16" fill="#d62728" stroke="#ffffff" stroke-width="1"/>
<rect x="1082.0" y="134.0" width="300" height="30" rx="4" fill="#ffffff" stroke="#d5dbdb"/>
<text x="1092.0" y="153.0" font-size="12" font-family="Arial" fill="#1b2631">Semiconductor Physics (15 papers)</text>
<circle cx="1060.0" cy="248.0" r="16" fill="#2ca02c" stroke="#ffffff" stroke-width="1"/>
<rect x="1082.0" y="232.0" width="300" height="30" rx="4" fill="#ffffff" stroke="#d5dbdb"/>
<text x="1092.0" y="251.0" font-size="12" font-family="Arial" fill="#1b2631">Computing Systems (13 papers)</text>
<circle cx="1060.0" cy="346.0" r="16" fill="#1f77b4" stroke="#ffffff" stroke-width="1"/>
<rect x="1082.0" y="330.0" width="300" height="30" rx="4" fill="#ffffff" stroke="#d5dbdb"/>
<text x="1092.0" y="349.0" font-size="12" font-family="Arial" fill="#1b2631">Information Theory (12 papers)</text>
<circle cx="1060.0" cy="444.0" r="16" fill="#8c564b" stroke="#ffffff" stroke-width="1"/>
<rect x="1082.0" y="428.0" width="300" height="30" rx="4" fill="#ffffff" stroke="#d5dbdb"/>
<text x="1092.0" y="447.0" font-size="12" font-family="Arial" fill="#1b2631">Mathematics Statistics (8 papers)</text>
<circle cx="1060.0" cy="542.0" r="16" fill="#9467bd" stroke="#ffffff" stroke-width="1"/>
<rect x="1082.0" y="526.0" width="300" height="30" rx="4" fill="#ffffff" stroke="#d5dbdb"/>
<text x="1092.0" y="545.0" font-size="12" font-family="Arial" fill="#1b2631">Radio Astronomy (7 papers)</text>
<circle cx="1060.0" cy="640.0" r="16" fill="#ff7f0e" stroke="#ffffff" stroke-width="1"/>
<rect x="1082.0" y="624.0" width="300" height="30" rx="4" fill="#ffffff" stroke="#d5dbdb"/>
<text x="1092.0" y="643.0" font-size="12" font-family="Arial" fill="#1b2631">Photonics Laser (6 papers)</text>
<circle cx="1060.0" cy="738.0" r="16" fill="#17becf" stroke="#ffffff" stroke-width="1"/>
<rect x="1082.0" y="722.0" width="300" height="30" rx="4" fill="#ffffff" stroke="#d5dbdb"/>
<text x="1092.0" y="741.0" font-size="12" font-family="Arial" fill="#1b2631">Network Theory (5 papers)</text>
<circle cx="1060.0" cy="836.0" r="16" fill="#e377c2" stroke="#ffffff" stroke-width="1"/>
<rect x="1082.0" y="820.0" width="300" height="30" rx="4" fill="#ffffff" stroke="#d5dbdb"/>
<text x="1092.0" y="839.0" font-size="12" font-family="Arial" fill="#1b2631">Satellite Communications (5 papers)</text>
<rect x="24" y="914" width="900" height="52" rx="4" fill="#f8f9f9" stroke="#d5dbdb"/>
<text x="38" y="936" font-size="12.5" font-family="Arial" fill="#1b2631">Researchers shown: 14 | Categories shown: 8 | Cross-domain bridges: 4</text>
<text x="38" y="955" font-size="11" font-family="Arial" fill="#5d6d7e">Dashed ring = bridge researcher. Highlighted: Shannon, Nyquist, Tukey, Hamming.</text>
</svg>