<svg xmlns="http://www.w3.org/2000/svg" width="1280" height="760">
<defs><marker id="arrow" markerWidth="10" markerHeight="8" refX="9" refY="4" orient="auto" markerUnits="strokeWidth"><path d="M0,0 L10,4 L0,8 z" fill="#7f8c8d"/></marker></defs>
<rect width="100%" height="100%" fill="#ffffff"/>
<text x="24" y="34" font-size="24" font-family="Arial" font-weight="bold" fill="#17202a">Directed Paper Flow Network (Clean Author Labels)</text>
<text x="24" y="57" font-size="13" font-family="Arial" fill="#5d6d7e">Timeline by year, with spread lanes to avoid stacking and overlap.</text>
<line x1="140.0" y1="95" x2="140.0" y2="650" stroke="#ecf0f1"/>
<text x="128.0" y="88" font-size="10.5" font-family="Arial" fill="#7b8a8b">1933</text>
<line x1="163.6" y1="95" x2="163.6" y2="650" stroke="#ecf0f1"/>
<text x="151.6" y="88" font-size="10.5" font-family="Arial" fill="#7b8a8b">1934</text>
<line x1="187.3" y1="95" x2="187.3" y2="650" stroke="#ecf0f1"/>
<text x="175.3" y="88" font-size="10.5" font-family="Arial" fill="#7b8a8b">1935</text>
<line x1="494.5" y1="95" x2="494.5" y2="650" stroke="#ecf0f1"/>
<text x="482.5" y="88" font-size="10.5" font-family="Arial" fill="#7b8a8b">1948</text>
<line x1="565.5" y1="95" x2="565.5" y2="650" stroke="#ecf0f1"/>
<text x="553.5" y="88" font-size="10.5" font-family="Arial" fill="#7b8a8b">1951</text>
<line x1="825.5" y1="95" x2="825.5" y2="650" stroke="#ecf0f1"/>
<text x="813.5" y="88" font-size="10.5" font-family="Arial" fill="#7b8a8b">1962</text>
<line x1="849.1" y1="95" x2="849.1" y2="650" stroke="#ecf0f1"/>
<text x="837.1" y="88" font-size="10.5" font-family="Arial" fill="#7b8a8b">1963</text>
<line x1="920.0" y1="95" x2="920.0" y2="650" stroke="#ecf0f1"/>
<text x="908.0" y="88" font-size="10.5" font-family="Arial" fill="#7b8a8b">1966</text>
<line x1="967.3" y1="95" x2="967.3" y2="650" stroke="#ecf0f1"/>
<text x="955.3" y="88" font-size="10.5" font-family="Arial" fill="#7b8a8b">1968</text>
<line x1="1061.8" y1="95" x2="1061.8" y2="650" stroke="#ecf0f1"/>
<text x="1049.8" y="88" font-size="10.5" font-family="Arial" fill="#7b8a8b">1972</text>
<line x1="1109.1" y1="95" x2="1109.1" y2="650" stroke="#ecf0f1"/>
<text x="1097.1" y="88" font-size="10.5" font-family="Arial" fill="#7b8a8b">1974</text>
<line x1="1132.7" y1="95" x2="1132.7" y2="650" stroke="#ecf0f1"/>
<text x="1120.7" y="88" font-size="10.5" font-family="Arial" fill="#7b8a8b">1975</text>
<line x1="1180.0" y1="95" x2="1180.0" y2="650" stroke="#ecf0f1"/>
<text x="1168.0" y="88" font-size="10.5" font-family="Arial" fill="#7b8a8b">1977</text>
<path d="M967.3,570.0 Q1050.0,448.0 1132.7,480.0" stroke="#85929e" fill="none" stroke-width="4.17" opacity="0.65" marker-end="url(#arrow)"/>
<path d="M825.5,210.0 Q1002.7,178.0 1180.0,570.0" stroke="#85929e" fill="none" stroke-width="3.91" opacity="0.65" marker-end="url(#arrow)"/>
<path d="M140.0,210.0 Q163.6,178.0 187.3,390.0" stroke="#85929e" fill="none" stroke-width="3.47" opacity="0.65" marker-end="url(#arrow)"/>
<path d="M920.0,390.0 Q990.9,178.0 1061.8,210.0" stroke="#85929e" fill="none" stroke-width="3.47" opacity="0.65" marker-end="url(#arrow)"/>
<path d="M920.0,390.0 Q920.0,358.0 920.0,480.0" stroke="#85929e" fill="none" stroke-width="3.35" opacity="0.65" marker-end="url(#arrow)"/>
<path d="M494.5,480.0 Q530.0,448.0 565.5,570.0" stroke="#85929e" fill="none" stroke-width="3.35" opacity="0.65" marker-end="url(#arrow)"/>
<path d="M163.6,300.0 Q506.4,268.0 849.1,300.0" stroke="#85929e" fill="none" stroke-width="3.34" opacity="0.65" marker-end="url(#arrow)"/>
<path d="M1061.8,300.0 Q1085.5,268.0 1109.1,390.0" stroke="#85929e" fill="none" stroke-width="3.30" opacity="0.65" marker-end="url(#arrow)"/>
<circle cx="140.0" cy="210.0" r="8" fill="#9467bd" stroke="#ffffff" stroke-width="1"/>
<rect x="151.0" y="197.0" width="300" height="28" rx="4" fill="#ffffff" stroke="#d5dbdb"/>
<text x="157.0" y="208.0" font-size="10.5" font-family="Arial" fill="#1b2631">Karl Jansky · Radio Astronomy</text>
<text x="157.0" y="220.0" font-size="10" font-family="Arial" fill="#5d6d7e">Electrical Disturbances Apparently …</text>
<circle cx="163.6" cy="300.0" r="8" fill="#17becf" stroke="#ffffff" stroke-width="1"/>
<rect x="174.6" y="287.0" width="300" height="28" rx="4" fill="#ffffff" stroke="#d5dbdb"/>
<text x="180.6" y="298.0" font-size="10.5" font-family="Arial" fill="#1b2631">Harry Nyquist +1 · Network Theory</text>
<text x="180.6" y="310.0" font-size="10" font-family="Arial" fill="#5d6d7e">Regenerative Current Action in Comm…</text>
<circle cx="187.3" cy="390.0" r="8" fill="#9467bd" stroke="#ffffff" stroke-width="1"/>
<rect x="198.3" y="377.0" width="300" height="28" rx="4" fill="#ffffff" stroke="#d5dbdb"/>
<text x="204.3" y="388.0" font-size="10.5" font-family="Arial" fill="#1b2631">Karl Jansky · Radio Astronomy</text>
<text x="204.3" y="400.0" font-size="10" font-family="Arial" fill="#5d6d7e">Radio Emission from Radio-Frequency…</text>
<circle cx="494.5" cy="480.0" r="8" fill="#d62728" stroke="#ffffff" stroke-width="1"/>
<rect x="505.5" y="467.0" width="300" height="28" rx="4" fill="#ffffff" stroke="#d5dbdb"/>
<text x="511.5" y="478.0" font-size="10.5" font-family="Arial" fill="#1b2631">John Bardeen +1 · Semiconductor Physics</text>
<text x="511.5" y="490.0" font-size="10" font-family="Arial" fill="#5d6d7e">The Transistor, A Semi-Conductor Tr…</text>
<circle cx="565.5" cy="570.0" r="8" fill="#d62728" stroke="#ffffff" stroke-width="1"/>
<rect x="576.5" y="557.0" width="300" height="28" rx="4" fill="#ffffff" stroke="#d5dbdb"/>
<text x="582.5" y="568.0" font-size="10.5" font-family="Arial" fill="#1b2631">William Shockley · Semiconductor Physics</text>
<text x="582.5" y="580.0" font-size="10" font-family="Arial" fill="#5d6d7e">Bipolar Junction Transistor Theory</text>
<circle cx="825.5" cy="210.0" r="8" fill="#8c564b" stroke="#ffffff" stroke-width="1"/>
<rect x="836.5" y="197.0" width="300" height="28" rx="4" fill="#ffffff" stroke="#d5dbdb"/>
<text x="842.5" y="208.0" font-size="10.5" font-family="Arial" fill="#1b2631">John Tukey · Mathematics Statistics</text>
<text x="842.5" y="220.0" font-size="10" font-family="Arial" fill="#5d6d7e">The Future of Data Analysis</text>
<circle cx="849.1" cy="300.0" r="8" fill="#e377c2" stroke="#ffffff" stroke-width="1"/>
<rect x="860.1" y="287.0" width="300" height="28" rx="4" fill="#ffffff" stroke="#d5dbdb"/>
<text x="866.1" y="298.0" font-size="10.5" font-family="Arial" fill="#1b2631">Harold Rosen +1 · Satellite Communications</text>
<text x="866.1" y="310.0" font-size="10" font-family="Arial" fill="#5d6d7e">Telstar: First Active Communication…</text>
<circle cx="920.0" cy="390.0" r="8" fill="#ff7f0e" stroke="#ffffff" stroke-width="1"/>
<rect x="931.0" y="377.0" width="300" height="28" rx="4" fill="#ffffff" stroke="#d5dbdb"/>
<text x="937.0" y="388.0" font-size="10.5" font-family="Arial" fill="#1b2631">Charles Kao +1 · Photonics Laser</text>
<text x="937.0" y="400.0" font-size="10" font-family="Arial" fill="#5d6d7e">Dielectric-Fiber Surface Waveguides…</text>
<circle cx="920.0" cy="480.0" r="8" fill="#ff7f0e" stroke="#ffffff" stroke-width="1"/>
<rect x="931.0" y="467.0" width="300" height="28" rx="4" fill="#ffffff" stroke="#d5dbdb"/>
<text x="937.0" y="478.0" font-size="10.5" font-family="Arial" fill="#1b2631">Stewart Miller +1 · Photonics Laser</text>
<text x="937.0" y="490.0" font-size="10" font-family="Arial" fill="#5d6d7e">Optical Fiber Communications</text>
<circle cx="967.3" cy="570.0" r="8" fill="#2ca02c" stroke="#ffffff" stroke-width="1"/>
<rect x="978.3" y="557.0" width="300" height="28" rx="4" fill="#ffffff" stroke="#d5dbdb"/>
<text x="984.3" y="568.0" font-size="10.5" font-family="Arial" fill="#1b2631">Ken Thompson · Computing Systems</text>
<text x="984.3" y="580.0" font-size="10" font-family="Arial" fill="#5d6d7e">Regular Expression Search Algorithm</text>
<circle cx="1061.8" cy="210.0" r="8" fill="#ff7f0e" stroke="#ffffff" stroke-width="1"/>
<rect x="1072.8" y="197.0" width="300" height="28" rx="4" fill="#ffffff" stroke="#d5dbdb"/>
<text x="1078.8" y="208.0" font-size="10.5" font-family="Arial" fill="#1b2631">Tingye Li +1 · Photonics Laser</text>
<text x="1078.8" y="220.0" font-size="10" font-family="Arial" fill="#5d6d7e">Low-Loss Optical Fiber</text>
<circle cx="1061.8" cy="300.0" r="8" fill="#2ca02c" stroke="#ffffff" stroke-width="1"/>
<rect x="1072.8" y="287.0" width="300" height="28" rx="4" fill="#ffffff" stroke="#d5dbdb"/>
<text x="1078.8" y="298.0" font-size="10.5" font-family="Arial" fill="#1b2631">Dennis Ritchie +1 · Computing Systems</text>
<text x="1078.8" y="310.0" font-size="10" font-family="Arial" fill="#5d6d7e">MULTICS: The First Seven Years</text>
<circle cx="1109.1" cy="390.0" r="8" fill="#2ca02c" stroke="#ffffff" stroke-width="1"/>
<rect x="1120.1" y="377.0" width="300" height="28" rx="4" fill="#ffffff" stroke="#d5dbdb"/>
<text x="1126.1" y="388.0" font-size="10.5" font-family="Arial" fill="#1b2631">Dennis Ritchie +1 · Computing Systems</text>
<text x="1126.1" y="400.0" font-size="10" font-family="Arial" fill="#5d6d7e">The UNIX Time-Sharing System</text>
<circle cx="1132.7" cy="480.0" r="8" fill="#2ca02c" stroke="#ffffff" stroke-width="1"/>
<rect x="1143.7" y="467.0" width="300" height="28" rx="4" fill="#ffffff" stroke="#d5dbdb"/>
<text x="1149.7" y="478.0" font-size="10.5" font-family="Arial" fill="#1b2631">Alfred Aho +1 · Computing Systems</text>
<text x="1149.7" y="490.0" font-size="10" font-family="Arial" fill="#5d6d7e">A Regular Expression Matcher</text>
<circle cx="1180.0" cy="570.0" r="8" fill="#8c564b" stroke="#ffffff" stroke-width="1"/>
<rect x="1191.0" y="557.0" width="300" height="28" rx="4" fill="#ffffff" stroke="#d5dbdb"/>
<text x="1197.0" y="568.0" font-size="10.5" font-family="Arial" fill="#1b2631">John Tukey · Mathematics Statistics</text>
<text x="1197.0" y="580.0" font-size="10" font-family="Arial" fill="#5d6d7e">Exploratory Data Analysis</text>
<rect x="24" y="676" width="580" height="62" fill="#f8f9f9" stroke="#d5dbdb" rx="4"/>
<text x="36" y="700" font-size="12.5" font-family="Arial" fill="#1b2631">Papers shown: 15 | Similarity arrows: 8</text>
<text x="36" y="720" font-size="11" font-family="Arial" fill="#5d6d7e">Labels show Author + Category + short title (no internal paper IDs).</text>
</svg>